<?xml version="1.0" encoding="iso-8859-1"?>
<!-- Generator: Adobe Illustrator 19.0.0, SVG Export Plug-In . SVG Version: 6.00 Build 0)  -->
<svg version="1.1" id="Layer_1" xmlns="http://www.w3.org/2000/svg" xmlns:xlink="http://www.w3.org/1999/xlink" x="0px" y="0px"
	 viewBox="0 0 511.999 511.999" style="enable-background:new 0 0 511.999 511.999;" xml:space="preserve">
<path style="fill:#8AB8D6;" d="M370.584,511.906H141.415c-17.736,0-34.306-7.908-45.462-21.697
	c-11.156-13.789-15.431-31.643-11.73-48.99l31.517-147.671H54.969c-6.005,0-11.699-2.67-15.539-7.285s-5.43-10.7-4.338-16.604
	L66.807,98.112c10.379-56.092,59.24-97.351,116.181-98.11c9.805-0.135,18.263,6.77,20.118,16.382
	c4.877,25.274,27.121,43.618,52.892,43.618c25.777,0,48.022-18.319,52.892-43.56C310.746,6.83,319.184-0.105,329.01,0.06
	c56.949,0.759,105.81,41.992,116.18,98.04l31.717,171.56c1.092,5.904-0.499,11.988-4.339,16.604s-9.534,7.285-15.538,7.285h-60.773
	l31.517,147.672c3.702,17.346-0.573,35.202-11.73,48.99C404.888,503.998,388.32,511.906,370.584,511.906z"/>
<g>
	<circle style="fill:#3F9797;" cx="303.872" cy="160.284" r="16.631"/>
	<circle style="fill:#3F9797;" cx="303.872" cy="222.072" r="16.631"/>
	<circle style="fill:#3F9797;" cx="303.872" cy="283.873" r="16.631"/>
	<circle style="fill:#3F9797;" cx="303.872" cy="345.661" r="16.631"/>
	<circle style="fill:#3F9797;" cx="303.872" cy="407.449" r="16.631"/>
</g>
<path style="fill:#99CEF1;" d="M256,511.906H141.415c-17.736,0-34.306-7.908-45.462-21.697
	c-11.156-13.789-15.431-31.643-11.73-48.99l31.517-147.671H54.969c-6.005,0-11.699-2.67-15.539-7.285s-5.43-10.7-4.338-16.604
	L66.807,98.112c10.379-56.092,59.24-97.351,116.181-98.11c9.805-0.135,18.263,6.77,20.118,16.382
	c4.877,25.274,27.121,43.618,52.892,43.618V511.906z"/>
<path style="fill:#3F9797;" d="M256,60.002c-7.103,0-13.936-1.4-20.214-3.948v455.946h40.428V56.06
	C269.935,58.603,263.103,60.002,256,60.002z"/>
<path style="fill:#46A8A8;" d="M256,60.002c-7.103,0-13.936-1.4-20.214-3.948v455.946H256V60.002z"/>
<g>
</g>
<g>
</g>
<g>
</g>
<g>
</g>
<g>
</g>
<g>
</g>
<g>
</g>
<g>
</g>
<g>
</g>
<g>
</g>
<g>
</g>
<g>
</g>
<g>
</g>
<g>
</g>
<g>
</g>
</svg>
