<?xml version="1.0" encoding="iso-8859-1"?>
<!-- Generator: Adobe Illustrator 19.0.0, SVG Export Plug-In . SVG Version: 6.00 Build 0)  -->
<svg version="1.1" id="Layer_1" xmlns="http://www.w3.org/2000/svg" xmlns:xlink="http://www.w3.org/1999/xlink" x="0px" y="0px"
	 viewBox="0 0 440.564 440.564" style="enable-background:new 0 0 440.564 440.564;" xml:space="preserve">
<circle style="fill:#E2DB78;" cx="220.278" cy="220.282" r="220.226"/>
<path style="fill:#D06194;" d="M422.337,132.673c-11.808-27.232-28.467-50.859-48.514-70.332c-1.464,0.616-2.93,1.213-4.39,1.845
	c-104.465,45.295-181.755,127.189-223.391,224.161c73.423,53.979,171.58,72.065,264.5,42.851
	C444.553,272.753,451.3,199.474,422.337,132.673z"/>
<path style="fill:#F5ED7F;" d="M205.105,0.52c-24.325,1.678-48.784,7.454-72.43,17.708c-42.197,18.297-75.756,48.223-98.57,84.396
	c3.539,23.858,10.2,47.607,20.226,70.728c20.538,47.368,52.624,86.263,91.711,114.997c15.117-35.206,34.954-68.409,59.064-98.611
	V0.52H205.105z"/>
<path style="fill:#ED6BA8;" d="M54.33,173.351c-10.025-23.121-16.685-46.87-20.226-70.728
	C-3.414,162.109-11.86,238.496,18.229,307.89c20.097,46.35,54.228,82.275,95.254,104.987c4.552-43.044,15.6-85.036,32.558-124.529
	C106.954,259.613,74.869,220.72,54.33,173.351z"/>
<path style="fill:#F5ED7F;" d="M205.105,321.85c-20.916-8.819-40.759-20.044-59.064-33.502
	c-16.957,39.493-28.005,81.485-32.558,124.529c28.07,15.539,59.372,24.868,91.621,27.127V321.85H205.105z"/>
<path style="fill:#ED6BA8;" d="M205.105,189.738c-24.11,30.202-43.948,63.405-59.064,98.611
	c18.305,13.458,38.148,24.683,59.064,33.502V189.738z"/>
<g>
</g>
<g>
</g>
<g>
</g>
<g>
</g>
<g>
</g>
<g>
</g>
<g>
</g>
<g>
</g>
<g>
</g>
<g>
</g>
<g>
</g>
<g>
</g>
<g>
</g>
<g>
</g>
<g>
</g>
</svg>
