<?xml version="1.0" encoding="iso-8859-1"?>
<!-- Generator: Adobe Illustrator 19.0.0, SVG Export Plug-In . SVG Version: 6.00 Build 0)  -->
<svg version="1.1" id="Layer_1" xmlns="http://www.w3.org/2000/svg" xmlns:xlink="http://www.w3.org/1999/xlink" x="0px" y="0px"
	 viewBox="0 0 512 512" style="enable-background:new 0 0 512 512;" xml:space="preserve">
<path style="fill:#94BD81;" d="M470.269,417.386l-70.234,25.01c-10.627,3.784-22.31-1.763-26.094-12.39L257.189,102.144
	c-3.784-10.627,1.763-22.31,12.39-26.094l70.234-25.01c10.627-3.784,22.31,1.763,26.094,12.39l116.752,327.862
	C486.444,401.919,480.897,413.602,470.269,417.386z"/>
<path style="fill:#E2DB78;" d="M349.691,361.907l24.251,68.101c3.784,10.627,15.468,16.174,26.094,12.39l70.234-25.01
	c10.627-3.784,16.174-15.468,12.39-26.094l-24.251-68.101L349.691,361.907z"/>
<path style="fill:#3F9797;" d="M293.277,441.159h-74.555c-11.28,0-20.426-9.145-20.426-20.426V72.703
	c0-11.28,9.145-20.426,20.426-20.426h74.555c11.28,0,20.426,9.145,20.426,20.426v348.031
	C313.702,432.014,304.558,441.159,293.277,441.159z"/>
<path style="fill:#46A8A8;" d="M256,441.159h-37.277c-11.28,0-20.426-9.145-20.426-20.426V72.703
	c0-11.28,9.145-20.426,20.426-20.426H256V441.159z"/>
<path style="fill:#98E790;" d="M161.359,441.159H86.804c-11.28,0-20.426-9.145-20.426-20.426V72.703
	c0-11.28,9.145-20.426,20.426-20.426h74.555c11.28,0,20.426,9.145,20.426,20.426v348.031
	C181.785,432.014,172.639,441.159,161.359,441.159z"/>
<path style="fill:#F5ED7F;" d="M66.379,348.443v72.29c0,11.28,9.145,20.426,20.426,20.426h74.555
	c11.28,0,20.426-9.145,20.426-20.426v-72.29H66.379L66.379,348.443z"/>
<path style="fill:#E2DB78;" d="M198.298,348.443v72.29c0,11.28,9.145,20.426,20.426,20.426h74.555
	c11.28,0,20.426-9.145,20.426-20.426v-72.29H198.298L198.298,348.443z"/>
<path style="fill:#F5ED7F;" d="M198.298,348.443v72.29c0,11.28,9.145,20.426,20.426,20.426H256v-92.716H198.298L198.298,348.443z"/>
<path style="fill:#3F9797;" d="M491.574,462.15H20.426C9.145,462.15,0,453.004,0,441.724s9.145-20.426,20.426-20.426h471.149
	c11.28,0,20.426,9.145,20.426,20.426S502.855,462.15,491.574,462.15z"/>
<path style="fill:#46A8A8;" d="M256,462.15H20.426C9.145,462.15,0,453.004,0,441.724s9.145-20.426,20.426-20.426H256V462.15z"/>
<g>
</g>
<g>
</g>
<g>
</g>
<g>
</g>
<g>
</g>
<g>
</g>
<g>
</g>
<g>
</g>
<g>
</g>
<g>
</g>
<g>
</g>
<g>
</g>
<g>
</g>
<g>
</g>
<g>
</g>
</svg>
