<?xml version="1.0" encoding="utf-8"?>
<!-- Generator: Adobe Illustrator 21.1.0, SVG Export Plug-In . SVG Version: 6.00 Build 0)  -->
<svg version="1.1" id="Capa_1" xmlns="http://www.w3.org/2000/svg" xmlns:xlink="http://www.w3.org/1999/xlink" x="0px" y="0px"
	 viewBox="0 0 60 60" style="enable-background:new 0 0 60 60;" xml:space="preserve">
<style type="text/css">
	.st0{fill:#9CB438;}
	.st1{fill:#ED6BA8;}
	.st2{fill:#FFFFFF;}
	.st3{opacity:0.7;fill:#9DB539;}
	.st4{fill:#5389B5;}
	.st5{fill:#D06194;}
	.st6{fill:#4A8CC0;}
	.st7{fill:#94BD81;}
	.st8{fill:#98E790;}
	.st9{fill:#E2DB78;}
	.st10{fill:#F5ED7F;}
	.st11{fill:#3F9797;}
	.st12{fill:#46A8A8;}
	.st13{fill:#8EB67C;}
	.st14{fill:#8AB8D6;}
	.st15{fill:#99CEF1;}
	.st16{fill:#FAFAFA;}
	.st17{fill:#D9D374;}
	.st18{fill:#D7D9DD;}
	.st19{fill:#97BE13;}
	.st20{fill-rule:evenodd;clip-rule:evenodd;fill:#C9D332;}
	.st21{fill-rule:evenodd;clip-rule:evenodd;fill:#73BCE2;}
	.st22{fill-rule:evenodd;clip-rule:evenodd;fill:#FFFFFF;}
	.st23{fill-rule:evenodd;clip-rule:evenodd;fill:#0096D6;}
	.st24{fill-rule:evenodd;clip-rule:evenodd;fill:#E7F1EC;}
	.st25{fill:#0096D6;}
	.st26{opacity:0.3;}
</style>
<path class="st2" d="M51.2,1H8.8C4.5,1,1,4.5,1,8.8v42.4C1,55.5,4.5,59,8.8,59h20.9l0-20.7h-5.4c-0.7,0-1.3-0.6-1.3-1.3l0-6.7
	c0-0.7,0.6-1.3,1.3-1.3h5.4v-6.5C29.7,15.1,34.3,11,41,11h5.5c0.7,0,1.3,0.6,1.3,1.3v5.6c0,0.7-0.6,1.3-1.3,1.3l-3.4,0
	c-3.6,0-4.3,1.7-4.3,4.3v5.6h8c0.8,0,1.4,0.7,1.3,1.4l-0.8,6.7c-0.1,0.6-0.6,1.1-1.3,1.1h-7.2l0,20.7h12.4c4.3,0,7.8-3.5,7.8-7.8
	V8.8C59,4.5,55.5,1,51.2,1z"/>
</svg>
