<?xml version="1.0" encoding="utf-8"?>
<!-- Generator: Adobe Illustrator 21.1.0, SVG Export Plug-In . SVG Version: 6.00 Build 0)  -->
<svg version="1.1" id="Capa_1" xmlns="http://www.w3.org/2000/svg" xmlns:xlink="http://www.w3.org/1999/xlink" x="0px" y="0px"
	 viewBox="0 0 214 88" style="enable-background:new 0 0 214 88;" xml:space="preserve">
<style type="text/css">
	.st0{fill:#9CB438;}
	.st1{fill:#ED6BA8;}
	.st2{fill:#FFFFFF;}
	.st3{opacity:0.7;fill:#9DB539;}
	.st4{fill:#5389B5;}
	.st5{fill:#D06194;}
	.st6{fill:#4A8CC0;}
	.st7{fill:#94BD81;}
	.st8{fill:#98E790;}
	.st9{fill:#E2DB78;}
	.st10{fill:#F5ED7F;}
	.st11{fill:#3F9797;}
	.st12{fill:#46A8A8;}
	.st13{fill:#8EB67C;}
	.st14{fill:#8AB8D6;}
	.st15{fill:#99CEF1;}
	.st16{fill:#FAFAFA;}
	.st17{fill:#D9D374;}
	.st18{fill:#D7D9DD;}
	.st19{fill:#97BE13;}
	.st20{fill-rule:evenodd;clip-rule:evenodd;fill:#C9D332;}
	.st21{fill-rule:evenodd;clip-rule:evenodd;fill:#73BCE2;}
	.st22{fill-rule:evenodd;clip-rule:evenodd;fill:#FFFFFF;}
	.st23{fill-rule:evenodd;clip-rule:evenodd;fill:#0096D6;}
	.st24{fill-rule:evenodd;clip-rule:evenodd;fill:#E7F1EC;}
	.st25{fill:#0096D6;}
	.st26{opacity:0.3;}
</style>
<g>
	<g>
		<g>
			<path class="st2" d="M161,27.4l0.9,0l-0.1,5.9c0,0.9-0.1,1.5-0.2,1.9c-0.1,0.4-0.4,0.6-0.7,0.8c-0.3,0.2-0.7,0.3-1.2,0.3
				c-0.4,0-0.7-0.1-1-0.2c-0.3-0.1-0.7-0.4-1.1-0.7l0.5-0.7c0.5,0.3,0.8,0.6,1.1,0.7c0.2,0.1,0.4,0.1,0.6,0.1c0.3,0,0.5-0.1,0.7-0.2
				c0.2-0.1,0.4-0.3,0.4-0.6c0.1-0.2,0.1-0.7,0.2-1.4L161,27.4z"/>
			<path class="st2" d="M159.6,38.1L159.6,38.1c-0.7,0-1.2-0.1-1.8-0.4c-0.5-0.2-1-0.6-1.6-1l-1.2-1.1l2.4-3.5l1.5,1.1
				c0,0,0.1,0.1,0.1,0.1c0,0,0-0.1,0-0.1l0.2-7.7l4.5,0.1l-0.2,7.7c0,1.2-0.1,2-0.4,2.5c-0.3,0.7-0.8,1.3-1.4,1.7
				C161.1,38,160.4,38.1,159.6,38.1z"/>
		</g>
		<g>
			<path class="st2" d="M170.4,29.9l-0.1,6.5l-0.8,0l0-1.1c-0.4,0.4-0.8,0.7-1.2,0.9c-0.4,0.2-0.9,0.3-1.4,0.3c-0.9,0-1.7-0.4-2.3-1
				c-0.6-0.7-0.9-1.5-0.9-2.4c0-0.9,0.4-1.7,1-2.4c0.7-0.6,1.5-1,2.4-0.9c0.5,0,1,0.1,1.4,0.4c0.4,0.2,0.8,0.6,1.1,1l0-1.2
				L170.4,29.9z M167.1,30.4c-0.5,0-0.9,0.1-1.3,0.3c-0.4,0.2-0.7,0.5-1,0.9c-0.2,0.4-0.4,0.8-0.4,1.3c0,0.5,0.1,0.9,0.3,1.3
				c0.2,0.4,0.5,0.8,0.9,1c0.4,0.2,0.8,0.4,1.3,0.4c0.5,0,0.9-0.1,1.3-0.3c0.4-0.2,0.7-0.5,1-0.9c0.2-0.4,0.3-0.8,0.4-1.3
				c0-0.7-0.2-1.4-0.7-1.9C168.4,30.7,167.8,30.5,167.1,30.4z"/>
			<path class="st2" d="M166.9,38.2l-0.1,0c-1.4,0-2.6-0.6-3.6-1.6c-1-1-1.4-2.3-1.4-3.7c0-1.4,0.6-2.6,1.6-3.6c1-1,2.2-1.5,3.6-1.5
				l0.1,0c0.5,0,0.9,0.1,1.3,0.2l3.9,0.1L172,38.2l-3.9-0.1C167.7,38.2,167.3,38.2,166.9,38.2z M167,32.2c-0.1,0-0.2,0-0.4,0.1
				c-0.1,0.1-0.2,0.2-0.3,0.3c-0.1,0.1-0.1,0.3-0.1,0.4c0,0.1,0,0.3,0.1,0.4c0.1,0.1,0.2,0.2,0.3,0.3c0.1,0.1,0.2,0.1,0.4,0.1
				c0,0,0,0,0,0c0.2,0,0.3,0,0.4-0.1c0.1-0.1,0.2-0.1,0.3-0.2c0-0.1,0.1-0.2,0.1-0.4c0-0.3-0.1-0.5-0.2-0.6
				C167.4,32.3,167.3,32.2,167,32.2L167,32.2z"/>
		</g>
		<g>
			<path class="st2" d="M172.1,29.9l0.8,0l0,0.9c0.3-0.4,0.5-0.6,0.8-0.8c0.3-0.2,0.6-0.3,0.9-0.3c0.2,0,0.5,0.1,0.7,0.2l-0.4,0.7
				c-0.2-0.1-0.3-0.1-0.4-0.1c-0.3,0-0.5,0.1-0.8,0.3c-0.3,0.2-0.5,0.6-0.6,1c-0.1,0.4-0.2,1.1-0.2,2.2l0,2.2l-0.9,0L172.1,29.9z"/>
			<path class="st2" d="M174.6,38.2l-4.4-0.1l0.2-10.1l3.3,0.1c0.3-0.1,0.6-0.1,1-0.1l0.1,0c0.5,0,1.1,0.2,1.6,0.5l1.6,0.9l-2.3,3.6
				l-0.8-0.4c0,0.2-0.1,0.7-0.1,1.6L174.6,38.2z"/>
		</g>
		<g>
			<path class="st2" d="M182.7,27.6l-0.2,9l-0.8,0l0-1.1c-0.4,0.4-0.8,0.7-1.2,0.9c-0.4,0.2-0.9,0.3-1.4,0.3c-0.9,0-1.7-0.4-2.3-1
				c-0.6-0.7-0.9-1.5-0.9-2.4c0-0.9,0.4-1.7,1-2.4c0.7-0.6,1.5-1,2.4-0.9c0.5,0,1,0.1,1.4,0.4c0.4,0.2,0.8,0.6,1.1,1l0.1-3.7
				L182.7,27.6z M179.3,30.7c-0.5,0-0.9,0.1-1.3,0.3c-0.4,0.2-0.7,0.5-1,0.9c-0.2,0.4-0.4,0.8-0.4,1.3c0,0.5,0.1,0.9,0.3,1.3
				c0.2,0.4,0.5,0.8,0.9,1c0.4,0.2,0.8,0.4,1.3,0.4c0.5,0,0.9-0.1,1.3-0.3c0.4-0.2,0.7-0.5,1-0.9c0.2-0.4,0.3-0.8,0.4-1.3
				c0-0.7-0.2-1.4-0.7-1.9C180.6,31,180,30.7,179.3,30.7z"/>
			<path class="st2" d="M179.2,38.5l-0.1,0c-1.4,0-2.6-0.6-3.6-1.6c-0.9-1-1.4-2.3-1.4-3.7c0-1.4,0.6-2.6,1.6-3.6
				c1-1,2.2-1.5,3.6-1.5l0.1,0c0.3,0,0.5,0,0.8,0.1l0-2.4l4.4,0.1l-0.3,12.6l-3.9-0.1C180,38.4,179.6,38.5,179.2,38.5z M179.3,32.5
				c-0.1,0-0.3,0-0.4,0.1c-0.1,0.1-0.2,0.2-0.3,0.3c-0.1,0.1-0.1,0.3-0.1,0.4c0,0.1,0,0.3,0.1,0.4c0.1,0.1,0.2,0.2,0.3,0.3
				c0.1,0.1,0.2,0.1,0.4,0.1l0,0c0.2,0,0.3,0,0.4-0.1c0.1-0.1,0.2-0.1,0.3-0.2c0-0.1,0.1-0.2,0.1-0.4c0-0.3-0.1-0.5-0.2-0.6
				C179.7,32.6,179.6,32.5,179.3,32.5L179.3,32.5z"/>
		</g>
		<g>
			<path class="st2" d="M185.4,27.1l1.3,0l-1.8,1.8l-0.8,0L185.4,27.1z M184.6,30.2l0.8,0l-0.1,6.5l-0.8,0L184.6,30.2z"/>
			<polygon class="st2" points="187,38.5 182.6,38.4 182.8,30.7 180.6,30.7 184.6,25.3 191,25.5 187.2,29.2 			"/>
		</g>
		<g>
			<path class="st2" d="M187.3,30.2l0.8,0l0,1.2c0.3-0.4,0.7-0.8,1.1-1c0.4-0.2,0.9-0.3,1.3-0.3c0.5,0,0.9,0.1,1.3,0.4
				c0.4,0.3,0.6,0.6,0.8,1c0.2,0.4,0.2,1.1,0.2,1.9l-0.1,3.3l-0.8,0l0.1-3.1c0-0.7,0-1.2-0.1-1.5c-0.1-0.4-0.3-0.8-0.5-1
				c-0.3-0.2-0.6-0.3-1.1-0.3c-0.5,0-1,0.1-1.4,0.5c-0.4,0.3-0.7,0.7-0.8,1.2c-0.1,0.3-0.1,0.9-0.2,1.8l0,2.4l-0.8,0L187.3,30.2z"/>
			<path class="st2" d="M194.5,38.6l-4.4-0.1l0.1-4.9c0-0.5,0-0.8,0-1c0,0-0.1,0-0.1,0.1c-0.1,0.1-0.2,0.2-0.2,0.3
				c0,0-0.1,0.3-0.1,1.3l-0.1,4.2l-4.4-0.1l0.2-10.1l3.8,0.1c0.4-0.1,0.7-0.1,1.1-0.1l0.1,0c0.8,0,1.6,0.3,2.3,0.7
				c0.7,0.5,1.2,1.1,1.5,1.8c0.3,0.7,0.4,1.5,0.4,2.7L194.5,38.6z"/>
		</g>
		<g>
			<path class="st2" d="M157.3,37.9l-0.2,9l-0.8,0l0-1.1c-0.4,0.4-0.8,0.7-1.2,0.9c-0.4,0.2-0.9,0.3-1.4,0.3c-0.9,0-1.7-0.4-2.3-1
				c-0.6-0.7-0.9-1.5-0.9-2.4c0-0.9,0.4-1.7,1-2.4c0.7-0.6,1.5-1,2.4-0.9c0.5,0,1,0.1,1.4,0.4c0.4,0.2,0.8,0.6,1.1,1l0.1-3.7
				L157.3,37.9z M153.9,40.9c-0.5,0-0.9,0.1-1.3,0.3c-0.4,0.2-0.7,0.5-1,0.9c-0.2,0.4-0.4,0.8-0.4,1.3c0,0.5,0.1,0.9,0.3,1.3
				c0.2,0.4,0.5,0.8,0.9,1c0.4,0.2,0.8,0.4,1.3,0.4c0.5,0,0.9-0.1,1.3-0.3c0.4-0.2,0.7-0.5,1-0.9c0.2-0.4,0.3-0.8,0.4-1.3
				c0-0.7-0.2-1.4-0.7-1.9C155.3,41.2,154.7,41,153.9,40.9z"/>
			<path class="st2" d="M153.8,48.7l-0.1,0c-1.4,0-2.6-0.6-3.6-1.6c-0.9-1-1.4-2.3-1.4-3.7c0-1.4,0.6-2.6,1.6-3.6
				c1-1,2.2-1.5,3.6-1.5l0.1,0c0.3,0,0.5,0,0.8,0.1l0-2.4l4.4,0.1l-0.3,12.6l-3.9-0.1C154.6,48.7,154.2,48.7,153.8,48.7z
				 M153.9,42.7c-0.1,0-0.3,0-0.4,0.1c-0.1,0.1-0.2,0.2-0.3,0.3c-0.1,0.1-0.1,0.3-0.1,0.4c0,0.1,0,0.3,0.1,0.4
				c0.1,0.1,0.2,0.2,0.3,0.3c0.1,0.1,0.2,0.1,0.4,0.1c0.2,0,0.3,0,0.4-0.1c0.1-0.1,0.2-0.1,0.3-0.2c0-0.1,0.1-0.2,0.1-0.4
				c0-0.3-0.1-0.5-0.2-0.6C154.3,42.8,154.2,42.7,153.9,42.7L153.9,42.7z"/>
		</g>
		<g>
			<path class="st2" d="M164.7,44.8l0.7,0.4c-0.2,0.4-0.5,0.8-0.8,1.1c-0.3,0.3-0.7,0.5-1,0.6c-0.4,0.1-0.8,0.2-1.3,0.2
				c-1.1,0-1.9-0.4-2.5-1.1c-0.6-0.7-0.9-1.5-0.8-2.4c0-0.8,0.3-1.5,0.8-2.2c0.7-0.8,1.5-1.2,2.6-1.2c1.1,0,2,0.5,2.6,1.3
				c0.5,0.6,0.7,1.3,0.7,2.2l-5.8-0.1c0,0.8,0.2,1.4,0.7,1.9c0.5,0.5,1,0.7,1.7,0.8c0.3,0,0.7,0,1-0.2c0.3-0.1,0.6-0.3,0.8-0.4
				C164.2,45.6,164.4,45.3,164.7,44.8z M164.7,43.1c-0.1-0.4-0.3-0.8-0.5-1.1c-0.2-0.3-0.5-0.5-0.8-0.7c-0.3-0.2-0.7-0.3-1.1-0.3
				c-0.6,0-1.2,0.2-1.6,0.6c-0.3,0.3-0.6,0.7-0.8,1.3L164.7,43.1z"/>
			<path class="st2" d="M162.3,48.9l-0.1,0c-1.6,0-2.9-0.6-3.8-1.7c-0.9-1-1.3-2.2-1.3-3.5c0-1.2,0.4-2.3,1.2-3.3
				c1-1.2,2.3-1.8,3.9-1.8l0.1,0c1.7,0,3,0.7,4,2c0.7,0.9,1,2,1,3.3l0,0.4l0.4,0.2l-0.4,0.7l0,0.4l-0.2,0l-0.2,0.4
				c-0.3,0.6-0.7,1.2-1.2,1.6c-0.5,0.4-1,0.7-1.6,1C163.6,48.8,163,48.9,162.3,48.9z"/>
		</g>
		<g>
			<path class="st2" d="M170.9,40.6l0.8,0l0,1.2c0.3-0.4,0.7-0.8,1.1-1c0.4-0.2,0.9-0.3,1.3-0.3c0.5,0,0.9,0.1,1.3,0.4
				c0.4,0.3,0.6,0.6,0.8,1c0.2,0.4,0.2,1.1,0.2,2l-0.1,3.3l-0.8,0l0.1-3.1c0-0.7,0-1.2-0.1-1.5c-0.1-0.4-0.3-0.8-0.5-1
				c-0.3-0.2-0.6-0.3-1.1-0.3c-0.5,0-1,0.1-1.4,0.5c-0.4,0.3-0.7,0.7-0.8,1.2c-0.1,0.3-0.1,0.9-0.2,1.8l0,2.4l-0.8,0L170.9,40.6z"/>
			<path class="st2" d="M178.1,49.1l-4.4-0.1l0.1-4.9c0-0.5,0-0.8,0-1c0,0-0.1,0-0.1,0.1c-0.1,0.1-0.2,0.2-0.2,0.3
				c0,0-0.1,0.3-0.1,1.3l-0.1,4.2l-4.4-0.1l0.2-10.1l3.8,0.1c0.4-0.1,0.7-0.1,1.1-0.1l0.1,0c0.8,0,1.6,0.3,2.3,0.7
				c0.7,0.5,1.2,1.1,1.5,1.8c0.3,0.7,0.4,1.5,0.4,2.7L178.1,49.1z"/>
		</g>
		<g>
			<path class="st2" d="M178.8,38.1c0.2,0,0.4,0.1,0.5,0.2c0.1,0.1,0.2,0.3,0.2,0.5c0,0.2-0.1,0.3-0.2,0.5c-0.1,0.1-0.3,0.2-0.5,0.2
				c-0.2,0-0.3-0.1-0.5-0.2c-0.1-0.1-0.2-0.3-0.2-0.5c0-0.2,0.1-0.4,0.2-0.5C178.4,38.2,178.6,38.1,178.8,38.1z M178.3,40.8l0.8,0
				l-0.1,6.5l-0.8,0L178.3,40.8z"/>
			<path class="st2" d="M180.7,49.1l-4.4-0.1l0.2-9.1c-0.2-0.3-0.3-0.7-0.2-1.1c0-0.7,0.3-1.3,0.8-1.7c0.5-0.4,1.1-0.7,1.7-0.7h0.1
				c0.7,0,1.3,0.3,1.7,0.8c0.5,0.5,0.7,1.1,0.7,1.8c0,0.4-0.1,0.8-0.3,1.1L180.7,49.1z M177.7,39l2.2,0c0-0.1,0-0.1,0-0.2
				c0-0.3-0.1-0.6-0.3-0.8c-0.2-0.2-0.5-0.3-0.8-0.3h0c-0.3,0-0.6,0.1-0.8,0.3c-0.2,0.2-0.3,0.5-0.3,0.8
				C177.6,38.9,177.6,38.9,177.7,39z"/>
		</g>
		<g>
			<path class="st2" d="M181,40.8l0.8,0l0,1.2c0.3-0.4,0.7-0.8,1.1-1c0.4-0.2,0.9-0.3,1.3-0.3c0.5,0,0.9,0.1,1.3,0.4
				c0.4,0.3,0.6,0.6,0.8,1c0.2,0.4,0.2,1.1,0.2,2l-0.1,3.3l-0.8,0l0.1-3.1c0-0.7,0-1.2-0.1-1.5c-0.1-0.4-0.3-0.8-0.5-1
				c-0.3-0.2-0.6-0.3-1.1-0.3c-0.5,0-1,0.1-1.4,0.5c-0.4,0.3-0.7,0.7-0.8,1.2c-0.1,0.3-0.1,0.9-0.2,1.8l0,2.4l-0.8,0L181,40.8z
				 M185.6,38.5l0.4,0.6c-0.3,0.2-0.5,0.3-0.7,0.4c-0.2,0.1-0.4,0.1-0.6,0.1c-0.3,0-0.6-0.1-0.9-0.2c-0.3-0.1-0.4-0.2-0.5-0.2
				c-0.1,0-0.2,0-0.3,0c-0.1,0-0.3,0-0.4,0.1c-0.1,0-0.3,0.2-0.6,0.3l-0.4-0.6c0.4-0.4,0.8-0.6,1.4-0.6c0.3,0,0.6,0.1,0.9,0.3
				c0.3,0.2,0.6,0.3,0.8,0.3C184.9,38.8,185.2,38.7,185.6,38.5z"/>
			<path class="st2" d="M188.3,49.3l-4.4-0.1l0.1-4.9c0-0.5,0-0.8,0-1c0,0-0.1,0-0.1,0.1c-0.1,0.1-0.2,0.2-0.2,0.3
				c0,0-0.1,0.3-0.1,1.3l-0.1,4.2l-4.4-0.1l0.2-10.1l0.4,0l-0.2-0.4l1-1c0.7-0.7,1.6-1.1,2.6-1.1l0.1,0c0.5,0,1.1,0.2,1.7,0.4
				c0,0,0,0,0,0c0,0,0,0,0,0l1.4-0.8l2.3,3.4l-1.2,0.8c0.3,0.3,0.5,0.7,0.7,1.1c0.3,0.7,0.4,1.5,0.4,2.7L188.3,49.3z"/>
		</g>
		<g>
			<path class="st2" d="M191.6,40.9c1,0,1.8,0.4,2.5,1.1c0.6,0.7,0.9,1.5,0.8,2.4c0,0.9-0.3,1.7-1,2.4c-0.6,0.7-1.5,1-2.4,1
				c-1,0-1.8-0.4-2.4-1.1c-0.6-0.7-0.9-1.5-0.9-2.4c0-0.9,0.3-1.7,0.9-2.3C189.8,41.2,190.6,40.9,191.6,40.9z M191.6,41.7
				c-0.7,0-1.3,0.2-1.8,0.7c-0.5,0.5-0.8,1.1-0.8,1.8c0,0.5,0.1,0.9,0.3,1.3c0.2,0.4,0.5,0.7,0.9,1c0.4,0.2,0.8,0.3,1.3,0.4
				c0.5,0,0.9-0.1,1.3-0.3c0.4-0.2,0.7-0.5,0.9-0.9c0.2-0.4,0.4-0.8,0.4-1.3c0-0.7-0.2-1.3-0.7-1.9C192.9,42,192.3,41.7,191.6,41.7z
				"/>
			<path class="st2" d="M191.6,49.5l-0.1,0c-1.5,0-2.8-0.6-3.7-1.7c-0.9-1-1.4-2.3-1.4-3.6c0-1.3,0.5-2.5,1.4-3.5
				c1-1,2.3-1.6,3.7-1.6l0.1,0c1.5,0,2.8,0.6,3.8,1.7c0.9,1,1.3,2.2,1.3,3.6c0,1.3-0.5,2.6-1.5,3.6C194.3,49,193,49.5,191.6,49.5z
				 M191.5,43.5c-0.2,0-0.3,0-0.5,0.2c-0.2,0.2-0.2,0.3-0.3,0.6c0,0.2,0,0.3,0.1,0.4c0.1,0.1,0.1,0.2,0.2,0.3
				c0.1,0.1,0.2,0.1,0.4,0.1c0,0,0,0,0,0c0.2,0,0.3,0,0.4-0.1c0.1-0.1,0.2-0.1,0.2-0.3c0.1-0.1,0.1-0.3,0.1-0.4
				c0-0.3-0.1-0.4-0.2-0.6C191.9,43.5,191.7,43.5,191.5,43.5L191.5,43.5z"/>
		</g>
		<g>
			<path class="st2" d="M199.9,41.9l-0.5,0.5c-0.4-0.4-0.9-0.7-1.3-0.7c-0.3,0-0.5,0.1-0.7,0.3c-0.2,0.2-0.3,0.4-0.3,0.6
				c0,0.2,0.1,0.4,0.2,0.6c0.2,0.2,0.5,0.4,1,0.7c0.6,0.3,1,0.7,1.2,1c0.2,0.3,0.3,0.6,0.3,1c0,0.5-0.2,1-0.6,1.3
				c-0.4,0.4-0.8,0.5-1.4,0.5c-0.4,0-0.7-0.1-1.1-0.3c-0.3-0.2-0.6-0.4-0.8-0.7l0.5-0.6c0.4,0.5,0.9,0.7,1.3,0.7
				c0.3,0,0.6-0.1,0.9-0.3c0.2-0.2,0.4-0.5,0.4-0.7c0-0.2-0.1-0.5-0.2-0.6c-0.2-0.2-0.5-0.4-1-0.7c-0.6-0.3-1-0.6-1.2-0.9
				c-0.2-0.3-0.3-0.6-0.3-1c0-0.5,0.2-0.9,0.5-1.2c0.3-0.3,0.8-0.5,1.3-0.5C198.7,41,199.3,41.3,199.9,41.9z"/>
			<path class="st2" d="M197.9,49.6L197.9,49.6c-0.7,0-1.3-0.2-1.9-0.5c-0.6-0.3-1.1-0.7-1.5-1.2l-0.9-1.2l1.7-1.8
				c-0.1-0.1-0.1-0.1-0.2-0.2c-0.4-0.6-0.6-1.3-0.6-2.1c0-1,0.4-1.8,1.1-2.5c0.7-0.6,1.5-0.9,2.5-0.9l0.1,0c1.1,0,2.1,0.5,3,1.4
				l1.3,1.3l-1.7,1.7c0.1,0.1,0.2,0.2,0.2,0.3l0,0c0.4,0.6,0.6,1.3,0.6,2.1c0,1-0.4,1.9-1.1,2.6C199.8,49.3,198.9,49.6,197.9,49.6z"
				/>
		</g>
	</g>
	<path class="st18" d="M115.4,45.7l11.6-2.1l-0.5-0.5l9.7-9.7l0,0c0.6-0.8,1-1.8,1-2.8c0-1.2-0.5-2.3-1.3-3.2l-4.6-4.6
		c-1.7-1.7-4.3-1.8-6-0.3l0,0l-9.7,9.7l-0.5-0.5l-2.1,11.6c-0.1,0.2-0.1,0.5-0.1,0.7l0,0c0,0.7,0.3,1.2,0.7,1.6
		C113.9,45.8,114.6,45.9,115.4,45.7z"/>
	<path class="st18" d="M208.4,60.7l4.6-9.6l-6.6-3.1c-3.9-1.8-8.5-2.7-13.6-2.7c-5.1,0-9.2,1-12.5,3.1c-0.6,0.4-1.2,0.8-1.7,1.3
		c-3.6-2.9-8-4.4-13.2-4.4c-4.4,0-8.4,1.1-11.7,3.3l-1.4-0.6c-3.9-1.8-8.5-2.7-13.6-2.7c-2.9,0-5.5,0.3-7.8,1l-3-4
		c-0.1-0.1-0.1-0.1-0.2-0.2c-2-2-4.7-3.1-7.5-3.1c-2.8,0-5.5,1.1-7.5,3.1c-0.7,0.7-1.3,1.5-1.8,2.4l-1-0.6V31.5L85.7,50.4
		c-1.7-1.5-3.6-2.8-5.8-3.6c-1-0.4-2-0.7-3-0.9c0.6-0.9,1.2-1.8,1.8-2.8c3.6-6.4,4.4-13.2,2.5-20.3c-2-7.3-6.4-12.8-13-16.4
		c-3.8-2-8.1-3.1-12.8-3.1c-3.3,0-6.8,0.5-10.5,1.5L4.1,16.1L23.2,86l33.3-9.1c0.6,0.8,1.3,1.5,2,2.1c3.9,3.5,8.9,5.3,14.8,5.3
		c5.8,0,10.8-1.8,14.7-5.3c0.2,0.2,0.5,0.5,0.8,0.7c3.3,2.9,7.5,4.4,12.1,4.4c1.2,0,2.3-0.1,3.4-0.3V84h26.6v-0.6
		c2.8,0.6,5.7,0.9,8.4,0.9c4.7,0,8.7-1.2,11.9-3.5c0.4-0.3,0.8-0.6,1.1-0.9c3.6,2.9,8,4.4,13.1,4.4c4.5,0,8.5-1.1,11.8-3.3l0.4,0.2
		c5.3,2.1,10.6,3.2,15.7,3.2c4.7,0,8.7-1.2,11.9-3.5c3.9-2.8,6-6.9,6-11.6c0-2.7-0.7-5.2-2-7.3C209,61.5,208.7,61.1,208.4,60.7z
		 M163.5,62.7c0.5-0.5,1.1-0.8,1.9-0.8c0.8,0,1.5,0.3,2,0.8c0.5,0.5,0.8,1.2,0.8,2c0,0.8-0.3,1.5-0.8,2c-0.5,0.5-1.2,0.8-2,0.8
		c-0.8,0-1.4-0.2-1.9-0.8c-0.5-0.5-0.7-1.2-0.7-2C162.8,63.8,163,63.2,163.5,62.7z"/>
	<path class="st2" d="M205.5,58.8l4.6-9.6l-6.6-3.1c-3.9-1.8-8.5-2.7-13.6-2.7c-5.1,0-9.2,1-12.5,3.1c-0.6,0.4-1.2,0.8-1.7,1.3
		c-3.6-2.9-8-4.4-13.2-4.4c-4.4,0-8.4,1.1-11.7,3.3l-1.4-0.6c-3.9-1.8-8.5-2.7-13.6-2.7c-2.9,0-5.5,0.3-7.8,1l-3-4
		c-0.1-0.1-0.1-0.1-0.2-0.2c-2-2-4.7-3.1-7.5-3.1c-2.8,0-5.5,1.1-7.5,3.1c-0.7,0.7-1.3,1.5-1.8,2.4l-1-0.6V29.6L82.8,48.5
		c-1.7-1.5-3.6-2.8-5.8-3.6c-1-0.4-2-0.7-3-0.9c0.6-0.9,1.2-1.8,1.8-2.8c3.6-6.4,4.4-13.2,2.5-20.3c-2-7.3-6.4-12.8-13-16.4
		c-3.8-2-8.1-3.1-12.8-3.1C49.3,1.5,45.8,2,42.1,3L1.2,14.2l19.1,69.9L53.6,75c0.6,0.8,1.3,1.5,2,2.1c3.9,3.5,8.9,5.3,14.8,5.3
		c5.8,0,10.8-1.8,14.7-5.3c0.2,0.2,0.5,0.5,0.8,0.7c3.3,2.9,7.5,4.4,12.1,4.4c1.2,0,2.3-0.1,3.4-0.3v0.1H128v-0.6
		c2.8,0.6,5.7,0.9,8.4,0.9c4.7,0,8.7-1.2,11.9-3.5c0.4-0.3,0.8-0.6,1.1-0.9c3.6,2.9,8,4.4,13.1,4.4c4.5,0,8.5-1.1,11.8-3.3l0.4,0.2
		c5.3,2.1,10.6,3.2,15.7,3.2c4.7,0,8.7-1.2,11.9-3.5c3.9-2.8,6-6.9,6-11.6c0-2.7-0.7-5.2-2-7.3C206.1,59.6,205.8,59.2,205.5,58.8z
		 M160.7,60.8c0.5-0.5,1.1-0.8,1.9-0.8c0.8,0,1.5,0.3,2,0.8c0.5,0.5,0.8,1.2,0.8,2c0,0.8-0.3,1.5-0.8,2c-0.5,0.5-1.2,0.8-2,0.8
		c-0.8,0-1.4-0.2-1.9-0.8c-0.5-0.5-0.7-1.2-0.7-2C159.9,62,160.2,61.3,160.7,60.8z"/>
	<path class="st19" d="M9,19.1l34-9.3c7.2-2,13.2-1.6,18,0.9c4.8,2.6,8,6.6,9.5,11.9c1.4,5.2,0.8,10.2-1.8,14.9
		c-2.6,4.7-6.5,7.7-11.7,9.1c-4.3,1.2-9,0.7-14.1-1.4l6.3,23.1l-24.8,6.8L9,19.1z M37.1,24.5l3.3,12.2c0.8,0,1.5-0.1,2.1-0.3
		c1.9-0.5,3.2-1.5,4-3c0.8-1.5,1-3.2,0.5-5.1c-0.5-1.9-1.4-3.2-2.7-4.1c-1.3-0.8-2.8-1-4.6-0.5L37.1,24.5z"/>
	<path class="st19" d="M103.9,51v6.7h-5.1v5.1c0,1.7,0.8,2.6,2.3,2.6c1.1,0,2.1-0.6,2.9-1.7v9.4c-1.9,1.3-4.3,1.9-7,1.9
		c-2.9,0-5.4-0.9-7.4-2.6c-2-1.8-3-4.2-3-7.2v-7.4h-5l17.2-13.5V51H103.9z"/>
	<path class="st19" d="M119.9,51v23.8h-12.2V51c1.6,0.9,3.7,1.4,6.3,1.4C116.3,52.4,118.3,51.9,119.9,51z"/>
	<path class="st19" d="M122.4,72.5l2.7-6.7c0.8,1.1,1.9,2,3,2.7c1.2,0.6,2.4,1,3.5,1c0.7,0,1.3-0.2,1.7-0.5c0.4-0.3,0.6-0.7,0.6-1.2
		c0-0.5-0.2-0.9-0.5-1.3c-0.4-0.4-1.3-0.8-2.9-1.2c-1.6-0.4-2.9-0.9-3.9-1.5c-1-0.5-1.8-1.3-2.5-2.4c-0.7-1-1-2.2-1-3.4
		c0-2.4,1-4.2,3.1-5.5c2-1.3,4.9-2,8.6-2c4.1,0,7.7,0.7,10.6,2l-2.9,6.1c-1.9-1.7-3.8-2.6-5.6-2.6c-0.6,0-1.1,0.1-1.4,0.4
		c-0.4,0.3-0.6,0.6-0.6,1c0,0.5,0.2,0.9,0.6,1.3c0.4,0.4,1.4,0.7,3,1.1c1.6,0.4,3,0.9,4.1,1.4c1.1,0.5,1.9,1.3,2.6,2.4
		c0.6,1.1,1,2.3,1,3.6c0,2.4-1,4.4-3,5.8c-2,1.4-4.5,2.1-7.7,2.1C131.2,75.1,126.9,74.3,122.4,72.5z"/>
	<path class="st19" d="M162.4,75.4c-3.8,0-6.9-1.1-9.3-3.4c-2.4-2.3-3.7-5.2-3.7-8.9c0-3.6,1.2-6.6,3.6-8.9c2.4-2.3,5.5-3.4,9.4-3.4
		c3.9,0,7,1.1,9.4,3.4c2.4,2.3,3.6,5.3,3.6,8.9c0,3.6-1.2,6.6-3.6,8.9C169.4,74.2,166.3,75.4,162.4,75.4z M162.4,60.1
		c-0.8,0-1.4,0.3-1.9,0.8c-0.5,0.5-0.7,1.2-0.7,2s0.2,1.5,0.7,2c0.5,0.5,1.1,0.7,1.9,0.7c0.8,0,1.5-0.2,2-0.7c0.5-0.5,0.8-1.2,0.8-2
		c0-0.8-0.2-1.5-0.8-2C163.9,60.4,163.2,60.1,162.4,60.1z"/>
	<path class="st19" d="M177.2,72.7L180,66c0.8,1.1,1.9,2,3,2.7c1.2,0.6,2.4,1,3.5,1c0.7,0,1.3-0.2,1.7-0.5c0.4-0.3,0.6-0.7,0.6-1.2
		c0-0.5-0.2-0.9-0.5-1.3c-0.4-0.4-1.3-0.8-2.9-1.2c-1.6-0.4-2.9-0.9-3.9-1.5c-1-0.5-1.8-1.3-2.5-2.4c-0.7-1-1-2.2-1-3.4
		c0-2.4,1-4.2,3.1-5.5c2-1.3,4.9-2,8.6-2c4.1,0,7.7,0.7,10.6,2l-2.9,6.1c-1.9-1.7-3.8-2.6-5.6-2.6c-0.6,0-1.1,0.1-1.4,0.4
		c-0.4,0.3-0.6,0.6-0.6,1c0,0.5,0.2,0.9,0.6,1.3c0.4,0.4,1.4,0.7,3,1.1c1.6,0.4,3,0.9,4.1,1.4c1.1,0.5,1.9,1.3,2.6,2.4
		c0.6,1.1,1,2.3,1,3.6c0,2.5-1,4.4-3,5.8c-2,1.4-4.5,2.1-7.7,2.1C186,75.4,181.7,74.5,177.2,72.7z"/>
	<path class="st2" d="M112.9,45.2l11.6-2.1l-0.5-0.5l9.7-9.7l0,0c0.6-0.8,1-1.8,1-2.8c0-1.2-0.5-2.3-1.3-3.2l-4.6-4.6
		c-1.7-1.6-4.3-1.8-6-0.3l0,0l-9.7,9.7l-0.5-0.5l-2.1,11.6c-0.1,0.2-0.1,0.5-0.1,0.7l0,0c0,0.7,0.3,1.2,0.7,1.6
		C111.4,45.3,112.1,45.4,112.9,45.2z"/>
	<g>
		
			<rect x="116.6" y="26.2" transform="matrix(0.7071 -0.7071 0.7071 0.7071 12.8755 96.4553)" class="st20" width="12.5" height="12.9"/>
		<polygon class="st21" points="115.9,43.3 122.5,42 113.5,33.1 112.3,39.7 		"/>
		<path class="st20" d="M113.2,43.7l1.9-0.4l-2.8-2.8l-0.4,1.9C111.6,43.4,112.2,44,113.2,43.7z"/>
		<path class="st21" d="M123.1,23.3c1.3-1.3,3.4-1.3,4.7,0l4.4,4.4c1.3,1.3,1.3,3.4,0,4.7L123.1,23.3z"/>
		<path class="st22" d="M120.3,38.1l0.6,0.6l8-8l-0.6-0.6L120.3,38.1z M130.1,31.8l-8,8l0.6,0.6l8-8L130.1,31.8z M116.9,34.6
			l0.6,0.6l8-8l-0.6-0.6L116.9,34.6z M115.1,32.9l0.6,0.6l8-8l-0.6-0.6L115.1,32.9z M118.6,36.4l0.6,0.6l8-8l-0.6-0.6L118.6,36.4z"
			/>
	</g>
	<g>
		<g>
			<path class="st23" d="M163.5,56.1c0.1-0.2,0.3-0.1,0.3,0.1l0.8,3.9c0,0.2,0.2,0.5,0.4,0.5l3.7,1.6c0.2,0.1,0.2,0.2,0,0.3l-3.5,2
				c-0.2,0.1-0.4,0.4-0.4,0.6l-0.3,4c0,0.2-0.2,0.3-0.3,0.1l-3-2.7c-0.2-0.1-0.5-0.2-0.7-0.2l-3.9,0.9c-0.2,0-0.3-0.1-0.2-0.3
				l1.7-3.7c0.1-0.2,0.1-0.5,0-0.7l-2.1-3.5c-0.1-0.2,0-0.3,0.2-0.3l4,0.5c0.2,0,0.5-0.1,0.7-0.3L163.5,56.1z"/>
			<path class="st21" d="M162.9,58.5c0.1-0.1,0.2-0.1,0.2,0.1l0.5,2.4c0,0.1,0.1,0.3,0.3,0.3l2.2,0.9c0.1,0.1,0.1,0.1,0,0.2
				l-2.1,1.2c-0.1,0.1-0.2,0.2-0.2,0.4l-0.2,2.4c0,0.1-0.1,0.2-0.2,0.1l-1.8-1.6c-0.1-0.1-0.3-0.1-0.4-0.1l-2.4,0.5
				c-0.1,0-0.2,0-0.1-0.2l1-2.2c0.1-0.1,0-0.3,0-0.4l-1.2-2.1c-0.1-0.1,0-0.2,0.1-0.2l2.4,0.3c0.1,0,0.3-0.1,0.4-0.2L162.9,58.5z"/>
			<path class="st24" d="M162.6,60c0.1-0.1,0.1,0,0.1,0l0.3,1.4c0,0.1,0.1,0.2,0.2,0.2l1.3,0.6c0.1,0,0.1,0.1,0,0.1l-1.3,0.7
				c-0.1,0-0.1,0.1-0.1,0.2l-0.1,1.4c0,0.1-0.1,0.1-0.1,0l-1.1-1c-0.1-0.1-0.2-0.1-0.2-0.1l-1.4,0.3c-0.1,0-0.1,0-0.1-0.1l0.6-1.3
				c0-0.1,0-0.2,0-0.3l-0.7-1.2c0-0.1,0-0.1,0.1-0.1l1.4,0.2c0.1,0,0.2,0,0.2-0.1L162.6,60z"/>
		</g>
	</g>
	<g>
		<g>
			<path class="st25" d="M75.9,66.4c-5,3.8-11.6,3.8-14.9-1.4c-2.7-4.3-1.5-10,2.8-12.7C67.3,50,74,51.5,76.3,55
				c1.8,2.9-0.1,4.8-3,6.6c-2.4,1.5-5.5,2.7-7,0.4c-1.2-1.9-0.7-4.5,1.3-5.8c1.6-1,4.7-0.5,5.8,1.1c0.8,1.3-0.3,1.9-1.6,2.8
				c-1.1,0.7-2.4,1.5-3.1,0.4c-0.6-0.9-0.4-1.9,0.6-2.6c0.8-0.6,0-1.4-0.9-0.7c-1.1,0.8-1.6,2.5-0.8,3.7c1,1.5,3.3,0.8,4.9-0.2
				c1.9-1.2,3.1-2.5,1.9-4.3c-1.5-2.3-5.5-3.7-8.3-2c-3.2,2-4.3,5.9-2.6,8.7c2.2,3.4,7,1.6,10.4-0.5c4.1-2.6,7.2-5.3,4.6-9.4
				c-3.2-5-11.9-7-17-3.8c-6.1,3.9-8,12-4.1,18.2c4.8,7.5,16.2,10.5,22.2,4.9C83.5,68.8,79.2,63.8,75.9,66.4z"/>
		</g>
	</g>
	<g>
		<g>
			<path class="st25" d="M161.2,27.7l0.9,0l-0.1,5.9c0,0.9-0.1,1.5-0.2,1.9c-0.1,0.4-0.4,0.6-0.7,0.8c-0.3,0.2-0.7,0.3-1.2,0.3
				c-0.4,0-0.7-0.1-1-0.2c-0.3-0.1-0.7-0.4-1.1-0.7l0.5-0.7c0.4,0.3,0.8,0.6,1.1,0.7c0.2,0.1,0.4,0.1,0.6,0.1c0.3,0,0.5-0.1,0.7-0.2
				c0.2-0.1,0.4-0.3,0.4-0.6c0.1-0.2,0.1-0.7,0.2-1.4L161.2,27.7z"/>
			<path class="st25" d="M159.8,36.9L159.8,36.9c-0.5,0-0.8-0.1-1.2-0.2c-0.4-0.2-0.8-0.4-1.2-0.8l-0.2-0.2l0.8-1.1l0.2,0.2
				c0.4,0.3,0.8,0.5,1.1,0.7c0.2,0.1,0.3,0.1,0.5,0.1h0c0.2,0,0.4-0.1,0.5-0.2c0.2-0.1,0.3-0.3,0.3-0.5c0.1-0.2,0.1-0.5,0.1-1.4
				l0.1-6.1l1.4,0l-0.1,6.2c0,0.9-0.1,1.6-0.3,2c-0.2,0.4-0.4,0.7-0.8,1C160.8,36.8,160.3,36.9,159.8,36.9z M158,35.6
				c0.3,0.3,0.6,0.4,0.9,0.6c0.3,0.1,0.6,0.2,0.9,0.2l0.1,0c0.4,0,0.7-0.1,1-0.3c0.3-0.2,0.5-0.4,0.6-0.7c0.1-0.3,0.2-0.9,0.2-1.8
				l0.1-5.6l-0.4,0l-0.1,5.6c0,0.8-0.1,1.3-0.2,1.5c-0.1,0.3-0.3,0.5-0.5,0.7c-0.2,0.2-0.5,0.3-0.8,0.3l0,0h0
				c-0.2,0-0.5-0.1-0.7-0.2c-0.3-0.1-0.6-0.3-1-0.6L158,35.6z"/>
		</g>
		<g>
			<path class="st25" d="M170.6,30.1l-0.1,6.5l-0.8,0l0-1.1c-0.4,0.4-0.8,0.7-1.2,0.9c-0.4,0.2-0.9,0.3-1.4,0.3
				c-0.9,0-1.7-0.4-2.3-1c-0.6-0.7-0.9-1.5-0.9-2.4c0-0.9,0.4-1.7,1-2.4c0.7-0.6,1.5-1,2.4-0.9c0.5,0,1,0.1,1.4,0.4
				c0.4,0.2,0.8,0.6,1.1,1l0-1.2L170.6,30.1z M167.3,30.7c-0.5,0-0.9,0.1-1.3,0.3c-0.4,0.2-0.7,0.5-1,0.9c-0.2,0.4-0.4,0.8-0.4,1.3
				c0,0.5,0.1,0.9,0.3,1.3c0.2,0.4,0.5,0.8,0.9,1c0.4,0.2,0.8,0.4,1.3,0.4c0.5,0,0.9-0.1,1.3-0.3c0.4-0.2,0.7-0.5,1-0.9
				c0.2-0.4,0.3-0.8,0.4-1.3c0-0.7-0.2-1.4-0.7-1.9C168.6,31,168,30.7,167.3,30.7z"/>
			<path class="st25" d="M167.1,37L167.1,37c-1.1,0-1.9-0.4-2.6-1.1c-0.7-0.7-1-1.6-1-2.6c0-1,0.4-1.9,1.1-2.5c0.7-0.7,1.5-1,2.5-1
				l0.1,0c0.6,0,1.1,0.1,1.6,0.4c0.3,0.1,0.5,0.3,0.7,0.6l0-0.8l1.3,0l-0.1,7l-1.3,0l0-0.7c-0.3,0.2-0.5,0.4-0.8,0.5
				C168.1,36.9,167.6,37,167.1,37z M167.1,30.2c-0.8,0-1.5,0.3-2.1,0.9c-0.6,0.6-0.9,1.3-1,2.2c0,0.9,0.3,1.6,0.9,2.3
				c0.6,0.6,1.3,0.9,2.1,1l0.1,0c0.4,0,0.9-0.1,1.2-0.3c0.4-0.2,0.8-0.5,1.1-0.9l0.5-0.5l0,1.6l0.3,0l0.1-6l-0.3,0l0,1.7l-0.4-0.7
				c-0.3-0.4-0.6-0.7-1-1C168.1,30.3,167.7,30.2,167.1,30.2L167.1,30.2z M167.2,36.2L167.2,36.2L167.2,36.2c-0.6,0-1-0.1-1.4-0.4
				c-0.4-0.3-0.8-0.6-1-1.1c-0.2-0.5-0.4-0.9-0.4-1.4c0-0.5,0.1-1,0.4-1.4c0.3-0.4,0.6-0.8,1.1-1c0.4-0.2,0.9-0.3,1.4-0.3h0.1
				c0.8,0,1.5,0.3,2,0.9c0.5,0.6,0.8,1.3,0.8,2.1c0,0.5-0.1,1-0.4,1.4c-0.3,0.4-0.6,0.8-1.1,1C168.1,36.1,167.7,36.2,167.2,36.2z
				 M167.2,31c-0.4,0-0.8,0.1-1.1,0.3c-0.4,0.2-0.6,0.5-0.9,0.8c-0.2,0.4-0.3,0.8-0.3,1.2c0,0.4,0.1,0.8,0.3,1.2
				c0.2,0.4,0.5,0.7,0.8,0.9c0.3,0.2,0.7,0.3,1.1,0.3h0c0.4,0,0.8-0.1,1.1-0.3c0.4-0.2,0.7-0.5,0.9-0.8c0.2-0.3,0.3-0.7,0.3-1.2
				c0-0.7-0.2-1.2-0.6-1.7C168.4,31.2,167.9,31,167.2,31L167.2,31z"/>
		</g>
		<g>
			<path class="st25" d="M172.3,30.2l0.9,0l0,0.9c0.3-0.4,0.5-0.6,0.8-0.8c0.3-0.2,0.6-0.3,0.9-0.3c0.2,0,0.5,0.1,0.7,0.2l-0.4,0.7
				c-0.2-0.1-0.3-0.1-0.4-0.1c-0.3,0-0.5,0.1-0.8,0.3c-0.3,0.2-0.5,0.6-0.6,1.1c-0.1,0.4-0.2,1.1-0.2,2.2l0,2.2l-0.8,0L172.3,30.2z"
				/>
			<path class="st25" d="M173.3,36.9l-1.4,0l0.1-7l1.4,0l0,0.5c0.1-0.1,0.3-0.2,0.4-0.3c0.3-0.2,0.7-0.3,1-0.3l0,0
				c0.3,0,0.6,0.1,0.9,0.3l0.2,0.1l-0.7,1.1l-0.2-0.1c-0.2-0.1-0.3-0.1-0.3-0.1c0,0,0,0,0,0c-0.2,0-0.4,0.1-0.6,0.3
				c-0.2,0.2-0.4,0.5-0.5,0.9c-0.1,0.3-0.2,1.1-0.2,2.2L173.3,36.9z M172.4,36.4l0.3,0l0-1.9c0-1.2,0.1-1.9,0.2-2.3
				c0.2-0.5,0.4-0.9,0.7-1.2c0.3-0.3,0.6-0.4,1-0.4h0c0.1,0,0.2,0,0.3,0.1l0.2-0.3c-0.1-0.1-0.3-0.1-0.4-0.1h0
				c-0.3,0-0.5,0.1-0.7,0.2c-0.3,0.2-0.5,0.4-0.7,0.8l-0.5,0.7l0-1.5l-0.3,0L172.4,36.4z"/>
		</g>
		<g>
			<path class="st25" d="M182.9,27.9l-0.2,9l-0.8,0l0-1.1c-0.4,0.4-0.8,0.7-1.2,0.9c-0.4,0.2-0.9,0.3-1.4,0.3c-0.9,0-1.7-0.4-2.3-1
				c-0.6-0.7-0.9-1.5-0.9-2.4c0-0.9,0.4-1.7,1-2.4c0.7-0.6,1.5-1,2.4-0.9c0.5,0,1,0.1,1.4,0.4c0.4,0.2,0.8,0.6,1.1,1l0.1-3.7
				L182.9,27.9z M179.5,31c-0.5,0-0.9,0.1-1.3,0.3c-0.4,0.2-0.7,0.5-1,0.9c-0.2,0.4-0.4,0.8-0.4,1.3c0,0.5,0.1,0.9,0.3,1.3
				c0.2,0.4,0.5,0.8,0.9,1c0.4,0.2,0.8,0.4,1.3,0.4c0.5,0,0.9-0.1,1.3-0.3c0.4-0.2,0.7-0.5,1-0.9c0.2-0.4,0.3-0.8,0.4-1.3
				c0-0.7-0.2-1.4-0.7-1.9C180.8,31.2,180.2,31,179.5,31z"/>
			<path class="st25" d="M179.4,37.2L179.4,37.2c-1.1,0-1.9-0.4-2.6-1.1c-0.7-0.7-1-1.6-1-2.6c0-1,0.4-1.9,1.1-2.5
				c0.7-0.7,1.5-1,2.5-1l0.1,0c0.6,0,1.1,0.1,1.6,0.4c0.3,0.1,0.5,0.3,0.7,0.6l0.1-3.3l1.3,0l-0.2,9.5l-1.3,0l0-0.7
				c-0.3,0.2-0.5,0.4-0.8,0.5C180.4,37.1,179.9,37.2,179.4,37.2z M179.4,30.4c-0.8,0-1.5,0.3-2.1,0.9c-0.6,0.6-0.9,1.3-1,2.2
				c0,0.9,0.3,1.6,0.9,2.3c0.6,0.6,1.3,0.9,2.1,1l0.1,0c0.4,0,0.9-0.1,1.2-0.3c0.4-0.2,0.8-0.5,1.1-0.9l0.5-0.5l0,1.6l0.3,0l0.2-8.5
				l-0.3,0l-0.1,4.2l-0.5-0.7c-0.3-0.4-0.6-0.7-1-1C180.4,30.5,179.9,30.4,179.4,30.4L179.4,30.4z M179.5,36.4L179.5,36.4
				L179.5,36.4c-0.6,0-1-0.1-1.4-0.4c-0.4-0.3-0.8-0.6-1-1.1c-0.2-0.5-0.4-0.9-0.4-1.4c0-0.5,0.1-1,0.4-1.4c0.3-0.4,0.6-0.8,1.1-1
				c0.4-0.2,0.9-0.3,1.4-0.3l0.1,0c0.8,0,1.5,0.3,2,0.9c0.5,0.6,0.8,1.3,0.8,2.1c0,0.5-0.1,1-0.4,1.4c-0.3,0.4-0.6,0.8-1.1,1
				C180.4,36.3,179.9,36.4,179.5,36.4z M179.5,31.2c-0.4,0-0.8,0.1-1.1,0.3c-0.4,0.2-0.6,0.5-0.9,0.8c-0.2,0.4-0.3,0.8-0.3,1.2
				c0,0.4,0.1,0.8,0.3,1.2c0.2,0.4,0.5,0.7,0.8,0.9c0.3,0.2,0.7,0.3,1.1,0.3l0,0c0.4,0,0.8-0.1,1.1-0.3c0.4-0.2,0.7-0.5,0.9-0.8
				c0.2-0.3,0.3-0.7,0.3-1.2c0-0.7-0.2-1.2-0.6-1.7C180.7,31.5,180.2,31.2,179.5,31.2L179.5,31.2z"/>
		</g>
		<g>
			<path class="st25" d="M185.6,27.4l1.3,0l-1.8,1.8l-0.8,0L185.6,27.4z M184.8,30.4l0.8,0l-0.1,6.5l-0.8,0L184.8,30.4z"/>
			<path class="st25" d="M185.7,37.2l-1.3,0l0.1-7l1.3,0L185.7,37.2z M184.9,36.6l0.3,0l0.1-6l-0.3,0L184.9,36.6z M185.2,29.5
				l-1.4,0l1.7-2.3l2,0L185.2,29.5z M184.8,29l0.2,0l1.3-1.3l-0.5,0L184.8,29z"/>
		</g>
		<g>
			<path class="st25" d="M187.5,30.5l0.8,0l0,1.2c0.3-0.4,0.7-0.8,1.1-1c0.4-0.2,0.9-0.3,1.3-0.3c0.5,0,0.9,0.1,1.3,0.4
				c0.4,0.3,0.6,0.6,0.8,1c0.2,0.4,0.2,1.1,0.2,1.9l-0.1,3.3l-0.8,0l0.1-3.1c0-0.7,0-1.2-0.1-1.5c-0.1-0.4-0.3-0.8-0.5-1
				c-0.3-0.2-0.6-0.3-1.1-0.3c-0.5,0-1,0.1-1.4,0.5c-0.4,0.3-0.7,0.7-0.8,1.2c-0.1,0.3-0.1,0.9-0.2,1.8l0,2.4l-0.8,0L187.5,30.5z"/>
			<path class="st25" d="M193.2,37.3l-1.3,0l0.1-3.3c0-0.9,0-1.3-0.1-1.4c-0.1-0.4-0.2-0.7-0.4-0.8c-0.2-0.2-0.5-0.3-0.9-0.3l0,0
				c-0.4,0-0.8,0.1-1.2,0.4c-0.4,0.3-0.6,0.6-0.7,1.1c-0.1,0.3-0.1,0.9-0.1,1.7l-0.1,2.6l-1.3,0l0.1-7l1.3,0l0,0.7
				c0.2-0.2,0.5-0.4,0.7-0.5c0.4-0.2,0.9-0.3,1.4-0.3l0.1,0c0.5,0,1,0.2,1.4,0.4c0.4,0.3,0.7,0.7,0.9,1.1c0.2,0.5,0.3,1.1,0.2,2.1
				L193.2,37.3z M192.4,36.8l0.3,0l0.1-3.1c0-0.8-0.1-1.5-0.2-1.8c-0.2-0.4-0.4-0.7-0.7-0.9c-0.3-0.2-0.7-0.3-1.1-0.3l-0.1,0
				c-0.4,0-0.8,0.1-1.1,0.3c-0.4,0.2-0.7,0.5-1,0.9l-0.5,0.6l0-1.7l-0.3,0l-0.1,6l0.3,0l0-2.1c0-0.9,0.1-1.5,0.2-1.8
				c0.2-0.5,0.5-1,0.9-1.4c0.4-0.4,0.9-0.5,1.5-0.5l0.1,0c0.5,0,0.9,0.1,1.2,0.4c0.3,0.3,0.5,0.6,0.6,1.1c0.1,0.3,0.1,0.8,0.1,1.6
				L192.4,36.8z"/>
		</g>
		<g>
			<path class="st25" d="M157.5,38.1l-0.2,9l-0.8,0l0-1.1c-0.4,0.4-0.8,0.7-1.2,0.9c-0.4,0.2-0.9,0.3-1.4,0.3c-0.9,0-1.7-0.4-2.3-1
				c-0.6-0.7-0.9-1.5-0.9-2.4c0-0.9,0.4-1.7,1-2.4c0.7-0.6,1.5-1,2.4-0.9c0.5,0,1,0.1,1.4,0.4c0.4,0.2,0.8,0.6,1.1,1l0.1-3.7
				L157.5,38.1z M154.1,41.2c-0.5,0-0.9,0.1-1.3,0.3c-0.4,0.2-0.7,0.5-1,0.9c-0.2,0.4-0.4,0.8-0.4,1.3c0,0.5,0.1,0.9,0.3,1.3
				c0.2,0.4,0.5,0.8,0.9,1c0.4,0.2,0.8,0.4,1.3,0.4c0.5,0,0.9-0.1,1.3-0.3c0.4-0.2,0.7-0.5,1-0.9c0.2-0.4,0.3-0.8,0.4-1.3
				c0-0.7-0.2-1.4-0.7-1.9C155.5,41.5,154.9,41.2,154.1,41.2z"/>
			<path class="st25" d="M154,47.5L154,47.5c-1.1,0-1.9-0.4-2.6-1.1c-0.7-0.7-1-1.6-1-2.6c0-1,0.4-1.9,1.1-2.5c0.7-0.7,1.5-1,2.5-1
				l0.1,0c0.6,0,1.1,0.1,1.6,0.4c0.3,0.1,0.5,0.3,0.7,0.6l0.1-3.3l1.3,0l-0.2,9.5l-1.3,0l0-0.7c-0.3,0.2-0.5,0.4-0.8,0.5
				C155,47.4,154.5,47.5,154,47.5z M154,40.7c-0.8,0-1.5,0.3-2.1,0.9c-0.6,0.6-0.9,1.3-1,2.2c0,0.9,0.3,1.6,0.9,2.3
				c0.6,0.6,1.3,0.9,2.1,1l0.1,0c0.4,0,0.9-0.1,1.2-0.3c0.4-0.2,0.8-0.5,1.1-0.9l0.5-0.5l0,1.6l0.3,0l0.2-8.5l-0.3,0l-0.1,4.2
				l-0.5-0.7c-0.3-0.4-0.6-0.7-1-1C155,40.8,154.6,40.7,154,40.7L154,40.7z M154.1,46.7L154.1,46.7L154.1,46.7c-0.6,0-1-0.1-1.4-0.4
				c-0.4-0.3-0.8-0.6-1-1.1c-0.2-0.5-0.4-0.9-0.4-1.4c0-0.5,0.1-1,0.4-1.4c0.3-0.4,0.6-0.8,1.1-1c0.4-0.2,0.9-0.3,1.4-0.3l0.1,0
				c0.8,0,1.5,0.3,2,0.9c0.5,0.6,0.8,1.3,0.8,2.1c0,0.5-0.1,1-0.4,1.4c-0.3,0.4-0.6,0.8-1.1,1C155,46.6,154.6,46.7,154.1,46.7z
				 M154.1,41.5c-0.4,0-0.8,0.1-1.1,0.3c-0.4,0.2-0.6,0.5-0.9,0.8c-0.2,0.4-0.3,0.8-0.3,1.2c0,0.4,0.1,0.8,0.3,1.2
				c0.2,0.4,0.5,0.7,0.8,0.9c0.3,0.2,0.7,0.3,1.1,0.3l0,0c0.4,0,0.8-0.1,1.1-0.3c0.4-0.2,0.7-0.5,0.9-0.8c0.2-0.3,0.3-0.7,0.3-1.2
				c0-0.7-0.2-1.2-0.6-1.7C155.3,41.7,154.8,41.5,154.1,41.5L154.1,41.5z"/>
		</g>
		<g>
			<path class="st25" d="M164.9,45.1l0.7,0.4c-0.2,0.4-0.5,0.8-0.8,1.1c-0.3,0.3-0.6,0.5-1,0.6c-0.4,0.1-0.8,0.2-1.3,0.2
				c-1.1,0-1.9-0.4-2.5-1.1c-0.6-0.7-0.9-1.5-0.8-2.4c0-0.8,0.3-1.5,0.8-2.2c0.7-0.8,1.5-1.2,2.6-1.2c1.1,0,2,0.5,2.6,1.3
				c0.5,0.6,0.7,1.3,0.7,2.2L160,44c0,0.8,0.2,1.4,0.7,1.9c0.5,0.5,1,0.7,1.7,0.8c0.3,0,0.7,0,1-0.2c0.3-0.1,0.6-0.3,0.8-0.4
				C164.3,45.8,164.6,45.5,164.9,45.1z M164.9,43.4c-0.1-0.4-0.3-0.8-0.5-1.1c-0.2-0.3-0.5-0.5-0.8-0.7c-0.3-0.2-0.7-0.3-1.1-0.3
				c-0.6,0-1.2,0.2-1.7,0.6c-0.3,0.3-0.6,0.7-0.8,1.3L164.9,43.4z"/>
			<path class="st25" d="M162.5,47.6L162.5,47.6c-1.2,0-2.1-0.4-2.7-1.2c-0.6-0.7-0.9-1.6-0.9-2.5c0-0.9,0.3-1.7,0.9-2.3
				c0.7-0.8,1.6-1.3,2.7-1.3l0.1,0c1.2,0,2.1,0.5,2.8,1.4c0.5,0.6,0.7,1.4,0.7,2.4l0,0.3l-5.8-0.1c0,0.6,0.2,1,0.6,1.4
				c0.4,0.4,0.9,0.7,1.5,0.7l0.1,0c0.3,0,0.6,0,0.8-0.1c0.3-0.1,0.5-0.2,0.7-0.4c0.2-0.2,0.4-0.5,0.7-0.8l0.1-0.2l1.1,0.6l-0.1,0.2
				c-0.3,0.5-0.5,0.9-0.9,1.1c-0.3,0.3-0.7,0.5-1.1,0.7C163.4,47.6,163,47.6,162.5,47.6z M162.4,40.8c-1,0-1.7,0.4-2.3,1.1
				c-0.5,0.6-0.7,1.3-0.7,2c0,0.8,0.2,1.5,0.8,2.2c0.5,0.6,1.3,1,2.3,1l0.1,0c0.4,0,0.8-0.1,1.1-0.2c0.3-0.1,0.7-0.3,0.9-0.6
				c0.2-0.2,0.4-0.5,0.6-0.8l-0.3-0.1c-0.2,0.3-0.4,0.6-0.6,0.8c-0.2,0.2-0.5,0.4-0.9,0.5c-0.3,0.1-0.7,0.2-1,0.2l0,0l-0.1,0
				c-0.8,0-1.4-0.3-1.9-0.8c-0.5-0.5-0.7-1.2-0.8-2v-0.3l5.8,0.1c0-0.7-0.2-1.3-0.6-1.8C164.3,41.2,163.5,40.8,162.4,40.8
				L162.4,40.8z M165.2,43.6l-5.5-0.1l0.1-0.3c0.2-0.6,0.5-1.1,0.9-1.4c0.5-0.4,1.1-0.6,1.8-0.6l0.1,0c0.4,0,0.8,0.1,1.2,0.3
				c0.4,0.2,0.7,0.4,0.9,0.7c0.2,0.3,0.4,0.7,0.5,1.2L165.2,43.6z M160.4,43l4.1,0.1c-0.1-0.3-0.2-0.5-0.3-0.7
				c-0.2-0.2-0.4-0.4-0.7-0.6c-0.3-0.2-0.6-0.2-1-0.2l-0.1,0c-0.6,0-1,0.2-1.4,0.5C160.8,42.3,160.6,42.6,160.4,43z"/>
		</g>
		<g>
			<path class="st25" d="M171,40.9l0.8,0l0,1.2c0.3-0.4,0.7-0.8,1.1-1c0.4-0.2,0.9-0.3,1.3-0.3c0.5,0,0.9,0.1,1.3,0.4
				c0.4,0.3,0.6,0.6,0.8,1c0.2,0.4,0.2,1.1,0.2,1.9l-0.1,3.3l-0.8,0l0.1-3.1c0-0.7,0-1.2-0.1-1.5c-0.1-0.4-0.3-0.8-0.5-1
				c-0.3-0.2-0.6-0.3-1.1-0.3c-0.5,0-1,0.1-1.4,0.5c-0.4,0.3-0.7,0.7-0.8,1.2c-0.1,0.3-0.1,0.9-0.2,1.8l0,2.4l-0.8,0L171,40.9z"/>
			<path class="st25" d="M176.8,47.8l-1.3,0l0.1-3.3c0-0.9,0-1.3-0.1-1.4c-0.1-0.4-0.2-0.7-0.4-0.8c-0.2-0.2-0.5-0.3-0.9-0.3l0,0
				c-0.4,0-0.8,0.1-1.2,0.4c-0.4,0.3-0.6,0.6-0.7,1.1c-0.1,0.3-0.1,0.9-0.1,1.7l-0.1,2.6l-1.3,0l0.1-7l1.3,0l0,0.7
				c0.2-0.2,0.5-0.4,0.7-0.5c0.4-0.2,0.9-0.3,1.4-0.3l0.1,0c0.5,0,1,0.2,1.4,0.4c0.4,0.3,0.7,0.7,0.9,1.1c0.2,0.5,0.3,1.1,0.2,2.1
				L176.8,47.8z M176,47.2l0.3,0l0.1-3.1c0-0.8-0.1-1.5-0.2-1.8c-0.2-0.4-0.4-0.7-0.7-0.9c-0.3-0.2-0.7-0.3-1.1-0.3l-0.1,0
				c-0.4,0-0.8,0.1-1.1,0.3c-0.4,0.2-0.7,0.5-1,0.9l-0.5,0.6l0-1.7l-0.3,0l-0.1,6l0.3,0l0-2.1c0-0.9,0.1-1.5,0.2-1.8
				c0.2-0.5,0.5-1,0.9-1.4c0.4-0.4,0.9-0.5,1.5-0.5h0.1c0.5,0,0.9,0.1,1.2,0.4c0.3,0.3,0.5,0.6,0.6,1.1c0.1,0.3,0.1,0.8,0.1,1.6
				L176,47.2z"/>
		</g>
		<g>
			<path class="st25" d="M179,38.4c0.2,0,0.4,0.1,0.5,0.2c0.1,0.1,0.2,0.3,0.2,0.5c0,0.2-0.1,0.3-0.2,0.5c-0.1,0.1-0.3,0.2-0.5,0.2
				c-0.2,0-0.3-0.1-0.5-0.2c-0.1-0.1-0.2-0.3-0.2-0.5c0-0.2,0.1-0.4,0.2-0.5C178.6,38.5,178.8,38.4,179,38.4z M178.5,41.1l0.8,0
				l-0.1,6.5l-0.8,0L178.5,41.1z"/>
			<path class="st25" d="M179.4,47.8l-1.3,0l0.1-7l1.3,0L179.4,47.8z M178.6,47.3l0.3,0l0.1-6l-0.3,0L178.6,47.3z M178.9,40
				L178.9,40c-0.3,0-0.5-0.1-0.7-0.3c-0.2-0.2-0.3-0.4-0.3-0.7c0-0.3,0.1-0.5,0.3-0.7c0.2-0.2,0.4-0.3,0.6-0.3
				c0.3,0,0.5,0.1,0.7,0.3c0.2,0.2,0.3,0.4,0.3,0.7c0,0.3-0.1,0.5-0.3,0.7C179.4,39.9,179.2,40,178.9,40z M178.9,38.7
				c-0.1,0-0.2,0-0.3,0.1c-0.1,0.1-0.1,0.2-0.1,0.3c0,0.1,0,0.2,0.1,0.3c0.1,0.1,0.2,0.1,0.3,0.1l0,0.3v-0.3c0.1,0,0.2,0,0.3-0.1
				c0.1-0.1,0.1-0.2,0.1-0.3c0-0.1,0-0.2-0.1-0.3C179.2,38.7,179.1,38.7,178.9,38.7C178.9,38.7,178.9,38.7,178.9,38.7z"/>
		</g>
		<g>
			<path class="st25" d="M181.2,41.1l0.8,0l0,1.2c0.3-0.4,0.7-0.8,1.1-1c0.4-0.2,0.9-0.3,1.3-0.3c0.5,0,0.9,0.1,1.3,0.4
				c0.4,0.3,0.6,0.6,0.8,1c0.2,0.4,0.2,1.1,0.2,1.9l-0.1,3.3l-0.8,0l0.1-3.1c0-0.7,0-1.2-0.1-1.5c-0.1-0.4-0.3-0.8-0.5-1
				c-0.3-0.2-0.6-0.3-1.1-0.3c-0.5,0-1,0.1-1.4,0.5c-0.4,0.3-0.7,0.7-0.8,1.2c-0.1,0.3-0.1,0.9-0.2,1.8l0,2.4l-0.8,0L181.2,41.1z
				 M185.8,38.8l0.4,0.6c-0.3,0.2-0.5,0.3-0.7,0.4c-0.2,0.1-0.4,0.1-0.6,0.1c-0.3,0-0.6-0.1-0.9-0.2c-0.3-0.1-0.4-0.2-0.5-0.2
				c-0.1,0-0.2,0-0.3,0c-0.1,0-0.3,0-0.4,0.1c-0.1,0-0.3,0.2-0.6,0.3l-0.4-0.6c0.4-0.4,0.8-0.6,1.3-0.6c0.3,0,0.6,0.1,0.9,0.3
				c0.3,0.2,0.6,0.3,0.8,0.3C185.1,39.1,185.4,39,185.8,38.8z"/>
			<path class="st25" d="M186.9,48l-1.3,0l0.1-3.3c0-0.9,0-1.3-0.1-1.4c-0.1-0.4-0.2-0.7-0.4-0.8c-0.2-0.2-0.5-0.3-0.9-0.3l0,0
				c-0.4,0-0.8,0.1-1.2,0.4c-0.4,0.3-0.6,0.7-0.7,1.1c-0.1,0.3-0.1,0.9-0.1,1.7l-0.1,2.6l-1.3,0l0.1-7l1.3,0l0,0.7
				c0.2-0.2,0.5-0.4,0.7-0.5c0.4-0.2,0.9-0.3,1.4-0.3l0.1,0c0.5,0,1,0.2,1.4,0.4c0.4,0.3,0.7,0.7,0.9,1.1c0.2,0.5,0.3,1.1,0.2,2.1
				L186.9,48z M186.1,47.4l0.3,0l0.1-3.1c0-0.8-0.1-1.5-0.2-1.8c-0.2-0.4-0.4-0.7-0.7-0.9c-0.3-0.2-0.7-0.3-1.1-0.3l-0.1,0
				c-0.4,0-0.8,0.1-1.1,0.3c-0.4,0.2-0.7,0.5-1,0.9l-0.5,0.6l0-1.7l-0.3,0l-0.1,6l0.3,0l0-2.1c0-0.9,0.1-1.5,0.2-1.8
				c0.2-0.5,0.5-1,0.9-1.4c0.4-0.4,0.9-0.5,1.5-0.5l0.1,0c0.5,0,0.9,0.1,1.2,0.4c0.3,0.3,0.5,0.6,0.6,1.1c0.1,0.3,0.1,0.8,0.1,1.6
				L186.1,47.4z M184.9,40.1L184.9,40.1c-0.4,0-0.7-0.1-1-0.3c-0.3-0.2-0.4-0.2-0.4-0.2c-0.1,0-0.2,0-0.2,0c-0.1,0-0.2,0-0.3,0.1
				c-0.1,0-0.2,0.1-0.5,0.3l-0.2,0.2l-0.6-1l0.1-0.1c0.4-0.4,0.9-0.6,1.5-0.6l0,0c0.3,0,0.6,0.1,1,0.3c0.4,0.2,0.6,0.2,0.7,0.2l0,0
				c0.1,0,0.4,0,0.8-0.3l0.2-0.1l0.7,1l-0.2,0.1c-0.3,0.2-0.6,0.4-0.8,0.4C185.3,40.1,185.1,40.1,184.9,40.1z M183.1,39.1
				L183.1,39.1c0.2,0,0.3,0,0.4,0.1c0.1,0,0.2,0.1,0.5,0.2c0.3,0.1,0.5,0.2,0.8,0.2l0,0c0.2,0,0.3,0,0.5-0.1c0.1,0,0.3-0.1,0.5-0.2
				l-0.1-0.2c-0.3,0.2-0.6,0.2-0.8,0.2c0,0,0,0,0,0c-0.3,0-0.5-0.1-0.9-0.3c-0.3-0.2-0.6-0.2-0.8-0.2l0,0c-0.4,0-0.7,0.1-1,0.3
				l0.1,0.2c0.2-0.1,0.3-0.2,0.4-0.2C182.8,39.1,183,39.1,183.1,39.1z"/>
		</g>
		<g>
			<path class="st25" d="M191.8,41.2c1,0,1.8,0.4,2.5,1.1c0.6,0.7,0.9,1.5,0.8,2.4c0,0.9-0.3,1.7-1,2.4c-0.6,0.7-1.5,1-2.4,1
				c-1,0-1.8-0.4-2.4-1.1c-0.6-0.7-0.9-1.5-0.9-2.4c0-0.9,0.3-1.7,0.9-2.3C190,41.5,190.8,41.1,191.8,41.2z M191.8,42
				c-0.7,0-1.3,0.2-1.8,0.7c-0.5,0.5-0.8,1.1-0.8,1.8c0,0.5,0.1,0.9,0.3,1.3c0.2,0.4,0.5,0.7,0.9,1c0.4,0.2,0.8,0.3,1.3,0.4
				c0.5,0,0.9-0.1,1.3-0.3c0.4-0.2,0.7-0.5,0.9-0.9c0.2-0.4,0.4-0.8,0.4-1.3c0-0.7-0.2-1.3-0.7-1.9C193.1,42.3,192.5,42,191.8,42z"
				/>
			<path class="st25" d="M191.8,48.2L191.8,48.2c-1.2,0-2-0.4-2.7-1.1c-0.7-0.7-1-1.6-1-2.6c0-1,0.4-1.8,1-2.5
				c0.7-0.7,1.6-1.1,2.6-1.1l0.1,0c1.1,0,2,0.4,2.6,1.2c0.6,0.7,0.9,1.6,0.9,2.5c0,1-0.4,1.8-1.1,2.5
				C193.6,47.9,192.8,48.2,191.8,48.2z M191.7,41.4c-0.9,0-1.6,0.3-2.2,1c-0.6,0.6-0.9,1.3-0.9,2.1c0,0.8,0.3,1.6,0.8,2.2
				c0.6,0.6,1.3,1,2.2,1l0.1,0c0.9,0,1.6-0.3,2.2-0.9c0.6-0.6,0.9-1.3,0.9-2.2c0-0.8-0.2-1.6-0.8-2.2
				C193.5,41.8,192.7,41.4,191.7,41.4L191.7,41.4z M191.7,47.4L191.7,47.4L191.7,47.4c-0.6,0-1-0.1-1.5-0.4c-0.4-0.3-0.8-0.6-1-1.1
				c-0.2-0.4-0.4-0.9-0.3-1.4c0-0.8,0.3-1.5,0.9-2c0.5-0.5,1.2-0.8,1.9-0.8h0.1c0.8,0,1.4,0.3,1.9,0.9c0.5,0.6,0.8,1.3,0.8,2.1
				c0,0.5-0.1,1-0.4,1.4c-0.3,0.4-0.6,0.8-1,1C192.7,47.3,192.2,47.4,191.7,47.4z M191.7,42.2c-0.6,0-1.1,0.2-1.6,0.7
				c-0.5,0.5-0.7,1-0.7,1.7c0,0.4,0.1,0.8,0.3,1.2c0.2,0.4,0.5,0.7,0.8,0.9c0.3,0.2,0.7,0.3,1.1,0.3l0.1,0c0.4,0,0.8-0.1,1.1-0.3
				c0.3-0.2,0.6-0.5,0.8-0.8c0.2-0.4,0.3-0.8,0.3-1.2c0-0.7-0.2-1.2-0.6-1.7C192.9,42.5,192.4,42.2,191.7,42.2L191.7,42.2z"/>
		</g>
		<g>
			<path class="st25" d="M200.1,42.2l-0.5,0.5c-0.4-0.4-0.9-0.7-1.3-0.7c-0.3,0-0.5,0.1-0.7,0.3c-0.2,0.2-0.3,0.4-0.3,0.6
				c0,0.2,0.1,0.4,0.2,0.6c0.2,0.2,0.5,0.4,1,0.7c0.6,0.3,1,0.7,1.2,1c0.2,0.3,0.3,0.6,0.3,1c0,0.5-0.2,1-0.6,1.3
				c-0.4,0.4-0.8,0.5-1.4,0.5c-0.4,0-0.7-0.1-1.1-0.3c-0.3-0.2-0.6-0.4-0.8-0.7l0.5-0.6c0.4,0.5,0.9,0.7,1.3,0.7
				c0.3,0,0.6-0.1,0.9-0.3c0.2-0.2,0.4-0.5,0.4-0.7c0-0.2-0.1-0.5-0.2-0.6c-0.2-0.2-0.5-0.4-1-0.7c-0.6-0.3-1-0.6-1.2-0.9
				c-0.2-0.3-0.3-0.6-0.3-1c0-0.5,0.2-0.9,0.5-1.2c0.3-0.3,0.8-0.5,1.3-0.5C198.9,41.3,199.5,41.6,200.1,42.2z"/>
			<path class="st25" d="M198.1,48.3L198.1,48.3c-0.5,0-0.9-0.1-1.2-0.3c-0.4-0.2-0.7-0.4-0.9-0.8l-0.1-0.2l0.9-1l0.2,0.2
				c0.4,0.4,0.7,0.6,1.1,0.7l0,0c0.3,0,0.5-0.1,0.7-0.2c0.2-0.2,0.3-0.3,0.3-0.6c0-0.2-0.1-0.3-0.2-0.5c-0.1-0.1-0.3-0.3-1-0.6
				c-0.6-0.3-1-0.7-1.3-1c-0.2-0.3-0.3-0.7-0.3-1.2c0-0.6,0.2-1,0.6-1.4c0.4-0.4,0.9-0.5,1.4-0.5l0.1,0c0.7,0,1.3,0.3,2,1l0.2,0.2
				l-0.9,0.9l-0.2-0.2c-0.4-0.4-0.8-0.6-1.1-0.6h0c-0.2,0-0.4,0.1-0.5,0.2c-0.1,0.1-0.2,0.3-0.2,0.4c0,0.1,0.1,0.3,0.2,0.4
				c0.1,0.1,0.3,0.3,0.9,0.6c0.7,0.4,1.1,0.7,1.3,1c0.2,0.4,0.4,0.7,0.4,1.2c0,0.6-0.2,1.1-0.7,1.5
				C199.2,48.1,198.7,48.3,198.1,48.3z M196.5,47.1c0.2,0.2,0.4,0.3,0.6,0.5c0.3,0.2,0.6,0.2,1,0.2l0,0c0.5,0,0.9-0.1,1.2-0.5
				c0.3-0.3,0.5-0.7,0.5-1.2c0-0.3-0.1-0.6-0.3-0.9c-0.2-0.3-0.6-0.6-1.2-0.9c-0.5-0.3-0.9-0.5-1.1-0.8c-0.2-0.2-0.3-0.5-0.3-0.8
				c0-0.3,0.1-0.6,0.4-0.8c0.2-0.2,0.5-0.3,0.8-0.3h0c0.4,0,0.9,0.2,1.3,0.6l0.2-0.2c-0.5-0.4-1-0.6-1.4-0.7l0,0
				c-0.4,0-0.8,0.1-1.1,0.4c-0.3,0.3-0.4,0.6-0.4,1c0,0.3,0.1,0.6,0.3,0.9c0.2,0.3,0.5,0.5,1.1,0.8c0.6,0.3,0.9,0.6,1.1,0.8
				c0.2,0.2,0.3,0.5,0.3,0.8c0,0.4-0.2,0.7-0.5,0.9c-0.3,0.2-0.6,0.4-1,0.4h0c-0.5,0-0.9-0.2-1.3-0.6L196.5,47.1z"/>
		</g>
	</g>
</g>
</svg>
