<?xml version="1.0" encoding="utf-8"?>
<!-- Generator: Adobe Illustrator 21.1.0, SVG Export Plug-In . SVG Version: 6.00 Build 0)  -->
<svg version="1.1" id="Layer_1" xmlns="http://www.w3.org/2000/svg" xmlns:xlink="http://www.w3.org/1999/xlink" x="0px" y="0px"
	 viewBox="0 0 90 90" style="enable-background:new 0 0 90 90;" xml:space="preserve">
<style type="text/css">
	.st0{fill:#FFFFFF;}
</style>
<g>
	<g id="Nuva_Logo_2_">
		<path class="st0" d="M38.4,86.7c-0.6,0.2-1.6,0-2.1-0.3l-29-19.8c-0.5-0.4-1-1.2-1.1-1.9l-2.6-35c0-0.7,0.3-1.5,0.8-2L30.1,3.8
			c0.5-0.4,1.4-0.7,2-0.6l34.7,5.2c0.6,0.1,1.4,0.6,1.8,1.2l17.6,30.4c0.3,0.6,0.4,1.5,0.2,2.1L73.5,74.9c-0.2,0.6-0.9,1.3-1.6,1.5
			L38.4,86.7L38.4,86.7z M55.9,58.3c0.6-0.2,1.3-0.8,1.6-1.5l5.5-14c0.2-0.6,0.2-1.6-0.2-2.1l-7.5-13.1c-0.3-0.6-1.1-1.1-1.8-1.2
			l-14.9-2.2c-0.6-0.1-1.6,0.2-2,0.6L25.5,35.1c-0.5,0.4-0.8,1.3-0.8,2l1.1,15c0,0.7,0.5,1.5,1.1,1.9l12.5,8.5
			c0.5,0.4,1.5,0.5,2.1,0.3L55.9,58.3L55.9,58.3z"/>
	</g>
</g>
</svg>
