<?xml version="1.0" encoding="iso-8859-1"?>
<!-- Generator: Adobe Illustrator 19.0.0, SVG Export Plug-In . SVG Version: 6.00 Build 0)  -->
<svg version="1.1" id="Layer_1" xmlns="http://www.w3.org/2000/svg" xmlns:xlink="http://www.w3.org/1999/xlink" x="0px" y="0px"
	 viewBox="0 0 512 512" style="enable-background:new 0 0 512 512;" xml:space="preserve">
<path style="fill:#3F9797;" d="M324.58,465.154l-75.071-42.874c-9.818-5.606-13.231-18.112-7.624-27.929L396.12,124.293
	c1.675-2.932,4.049-5.405,6.91-7.196l77.504-48.546c6.393-4.004,14.469-4.168,21.02-0.427c6.551,3.741,10.513,10.782,10.312,18.322
	l-2.433,91.421c-0.09,3.375-1.013,6.675-2.687,9.608L352.509,457.529C346.902,467.348,334.398,470.761,324.58,465.154z"/>
<g>
	<path style="fill:#94BD81;" d="M241.622,394.201c-5.606,9.818-1.941,22.49,7.876,28.097l75.071,42.874
		c9.818,5.606,22.846,2.469,28.453-7.348l27.063-47.386l-111.401-63.623L241.622,394.201z"/>
	<path style="fill:#94BD81;" d="M507.257,187.766c1.675-2.932,2.341-6.38,2.431-9.754l2.305-91.494
		c0.201-7.54-3.825-14.617-10.376-18.358c-6.551-3.741-14.659-3.595-21.052,0.409l-77.651,48.463
		c-2.861,1.792-5.383,4.18-7.057,7.112l-25.645,44.904l111.401,63.623L507.257,187.766z"/>
</g>
<path style="fill:#3F9797;" d="M258.715,472.257h-86.452c-11.306,0-20.472-9.166-20.472-20.472V140.787
	c0-3.376,0.835-6.701,2.431-9.676l43.225-80.593c3.565-6.648,10.496-10.795,18.041-10.795s14.475,4.149,18.041,10.795l43.226,80.593
	c1.595,2.975,2.431,6.3,2.431,9.676v310.998C279.186,463.091,270.022,472.257,258.715,472.257z"/>
<g>
	<path style="fill:#46A8A8;" d="M215.489,472.257h-43.225c-11.306,0-20.472-9.166-20.472-20.472V140.787
		c0-3.376,0.835-6.701,2.431-9.676l43.225-80.593c3.565-6.648,10.496-10.795,18.041-10.795V472.257z"/>
	<path style="fill:#46A8A8;" d="M107.225,472.257h-86.45c-11.306,0-20.472-9.166-20.472-20.472V140.787
		c0-3.376,0.835-6.701,2.431-9.676l43.225-80.593C49.524,43.871,56.455,39.723,64,39.723s14.475,4.149,18.041,10.795l43.226,80.593
		c1.595,2.975,2.431,6.3,2.431,9.676v310.998C127.696,463.091,118.532,472.257,107.225,472.257z"/>
</g>
<g>
	<path style="fill:#ED6BA8;" d="M0,451.785c0,11.306,9.469,20.492,20.775,20.492h86.452c11.306,0,21.064-9.186,21.064-20.492v-54.57
		H0V451.785z"/>
	<path style="fill:#ED6BA8;" d="M128.289,140.787c0-3.376-1.131-6.701-2.727-9.676L82.188,50.519
		c-3.565-6.648-10.572-10.795-18.115-10.795S49.56,43.872,45.996,50.519L2.601,131.111C1.006,134.086,0,137.411,0,140.787v51.711
		h128.289V140.787z"/>
</g>
<path style="fill:#D9D374;" d="M151.49,451.785c0,11.306,9.469,20.492,20.775,20.492h86.452c11.306,0,21.064-9.186,21.064-20.492
	v-54.57H151.491v54.57H151.49z"/>
<path style="fill:#F5ED7F;" d="M151.49,451.785c0,11.306,9.469,20.492,20.775,20.492h43.225l-0.008-75.063H151.49V451.785z"/>
<path style="fill:#D9D374;" d="M279.778,140.787c0-3.376-1.131-6.701-2.727-9.676l-43.374-80.593
	c-3.565-6.648-10.572-10.795-18.115-10.795s-14.513,4.149-18.078,10.795l-43.394,80.593c-1.595,2.975-2.601,6.3-2.601,9.676v51.711
	h128.289V140.787z"/>
<path style="fill:#F5ED7F;" d="M215.563,39.723c-7.543,0-14.513,4.149-18.078,10.795l-43.394,80.593
	c-1.595,2.975-2.601,6.3-2.601,9.676v51.711h63.991L215.563,39.723z"/>
<g>
</g>
<g>
</g>
<g>
</g>
<g>
</g>
<g>
</g>
<g>
</g>
<g>
</g>
<g>
</g>
<g>
</g>
<g>
</g>
<g>
</g>
<g>
</g>
<g>
</g>
<g>
</g>
<g>
</g>
</svg>
