<?xml version="1.0" encoding="iso-8859-1"?>
<!-- Generator: Adobe Illustrator 19.0.0, SVG Export Plug-In . SVG Version: 6.00 Build 0)  -->
<svg version="1.1" id="Layer_1" xmlns="http://www.w3.org/2000/svg" xmlns:xlink="http://www.w3.org/1999/xlink" x="0px" y="0px"
	 viewBox="0 0 512 512" style="enable-background:new 0 0 512 512;" xml:space="preserve">
<path style="fill:#E2DB78;" d="M256.223,227.405h-59.398c-10.737,0-19.442-8.705-19.442-19.442V93.371
	c0-27.096,22.044-49.141,49.141-49.141s49.141,22.044,49.141,49.141v114.593C275.665,218.701,266.96,227.405,256.223,227.405z"/>
<path style="fill:#F5ED7F;" d="M218.374,227.405h-21.549c-10.737,0-19.442-8.705-19.442-19.442V93.371
	c0-24.32,17.758-44.571,40.989-48.464L218.374,227.405z"/>
<path style="fill:#3F9797;" d="M374.505,419.587H342.54c-10.737,0-19.442-8.705-19.442-19.442c0-10.737,8.705-19.442,19.442-19.442
	h31.965c10.186,0,18.473-8.287,18.473-18.473v-47.169c0-10.186-8.287-18.473-18.473-18.473H342.54
	c-10.737,0-19.442-8.705-19.442-19.442c0-10.737,8.705-19.442,19.442-19.442h31.965c31.626,0,57.357,25.73,57.357,57.357v47.169
	C431.861,393.857,406.131,419.587,374.505,419.587z"/>
<path style="fill:#8AB8D6;" d="M283.944,291.634c-1.585,0-3.195-0.194-4.801-0.603c-10.406-2.644-16.7-13.224-14.056-23.629
	l62.235-244.964c2.643-10.406,13.222-16.7,23.629-14.056c10.406,2.644,16.7,13.224,14.056,23.629l-62.235,244.964
	C300.539,285.776,292.627,291.634,283.944,291.634z"/>
<path style="fill:#D06194;" d="M322.381,148.145c-2.219,0-4.473-0.272-6.723-0.844c-14.57-3.702-23.379-18.514-19.679-33.082
	l23.804-93.696c3.702-14.57,18.512-23.38,33.082-19.679c14.57,3.702,23.379,18.514,19.679,33.082l-23.804,93.696
	C345.611,139.943,334.535,148.145,322.381,148.145z"/>
<path style="fill:#99CEF1;" d="M146.637,278.218c-8.553,0-16.391-5.687-18.747-14.335L97.763,153.323
	c-3.452-12.664-1.764-25.914,4.75-37.31s17.078-19.571,29.742-23.023c26.137-7.121,53.207,8.348,60.331,34.491l30.129,110.562
	c1.356,4.974,0.679,10.285-1.879,14.761c-2.559,4.477-6.792,7.752-11.767,9.108l-57.309,15.617
	C150.05,277.995,148.33,278.218,146.637,278.218z"/>
<path style="fill:#3F9797;" d="M303.281,512H133.469c-29.406,0-53.331-23.924-53.331-53.331V218.623
	c0-29.407,23.925-53.331,53.331-53.331h169.812c29.406,0,53.331,23.924,53.331,53.331v240.044
	C356.612,488.075,332.687,512,303.281,512z"/>
<path style="fill:#46A8A8;" d="M218.376,512H133.47c-29.406,0-53.331-23.924-53.331-53.331V218.623
	c0-29.407,23.925-53.331,53.331-53.331h84.905V512z"/>
<g>
</g>
<g>
</g>
<g>
</g>
<g>
</g>
<g>
</g>
<g>
</g>
<g>
</g>
<g>
</g>
<g>
</g>
<g>
</g>
<g>
</g>
<g>
</g>
<g>
</g>
<g>
</g>
<g>
</g>
</svg>
