<?xml version="1.0" encoding="iso-8859-1"?>
<!-- Generator: Adobe Illustrator 19.0.0, SVG Export Plug-In . SVG Version: 6.00 Build 0)  -->
<svg version="1.1" id="Layer_1" xmlns="http://www.w3.org/2000/svg" xmlns:xlink="http://www.w3.org/1999/xlink" x="0px" y="0px"
	 viewBox="0 0 512 512" style="enable-background:new 0 0 512 512;" xml:space="preserve">
<path style="fill:#8EB67C;" d="M254.641,75.567c26.738,0,48.925,20.006,52.582,45.606h34.109V17.066h-86.692h-83.975v104.107h31.392
	C205.716,95.572,227.903,75.567,254.641,75.567z"/>
<path style="fill:#98E790;" d="M254.293,75.567V17.066h-83.627v104.107h31.392C205.716,95.572,228.693,75.567,254.293,75.567z"/>
<path style="fill:#8AB8D6;" d="M416.015,262.682c0,25.83-16.655,47.744-40.549,55.035v47.509h16.886
	c3.657-25.6,25.846-45.606,52.584-45.606s48.925,20.006,52.582,45.606H512V138.239h-14.81
	c-3.657,27.307-25.844,45.606-52.582,45.606s-48.923-18.299-52.582-45.606h-16.558v69.408
	C399.36,214.938,416.015,236.852,416.015,262.682z"/>
<path style="fill:#3F9797;" d="M254.314,436.431c-26.738,0-48.923-20.006-52.582-45.606h-31.065v104.107h170.667V390.826h-34.437
	C303.239,416.426,281.052,436.431,254.314,436.431z"/>
<path style="fill:#46A8A8;" d="M254.314,436.431c-26.738,0-48.923-20.006-52.582-45.606h-31.065v104.107h83.975L254.314,436.431z"/>
<path style="fill:#3F9797;" d="M423.427,111.209c3.229,4.234,4.296,10.115,2.884,15.251c-0.452,1.647-0.681,3.331-0.681,5.028
	c0,10.465,8.513,18.954,18.978,18.954c10.464,0,18.976-8.562,18.976-19.028c0-1.696-0.23-3.49-0.681-5.137
	c-1.41-5.135-0.343-10.829,2.884-15.063c3.227-4.234,8.247-7.11,13.571-7.11H512V17.066H375.467v87.04h34.388
	C415.181,104.106,420.2,106.975,423.427,111.209z"/>
<path style="fill:#E2DB78;" d="M466.118,392.447c-3.229-4.233-4.297-9.926-2.889-15.061c0.456-1.657,0.684-3.35,0.684-5.043
	c0-10.464-8.513-18.964-18.978-18.964c-10.465,0-18.978,8.538-18.978,19.002c0,1.696,0.23,3.444,0.681,5.093
	c1.41,5.135,0.343,10.733-2.884,14.967c-3.229,4.234-8.247,6.921-13.571,6.921h-34.715v95.573H512v-95.573h-32.312
	C474.365,399.359,469.347,396.678,466.118,392.447z"/>
<path style="fill:#98E790;" d="M136.533,399.359h-34.388c-5.325,0-10.344-2.683-13.571-6.917c-3.229-4.233-4.296-9.929-2.884-15.065
	c0.452-1.649,0.681-3.338,0.681-5.035c0-10.464-8.513-18.964-18.978-18.964c-10.464,0-18.976,8.538-18.976,19.002
	c0,1.696,0.23,3.444,0.681,5.093c1.41,5.135,0.343,10.733-2.884,14.967c-3.229,4.234-8.247,6.921-13.571,6.921H0v95.573h136.533
	V399.359z"/>
<path style="fill:#F5ED7F;" d="M45.882,111.206c3.229,4.231,4.297,10.112,2.889,15.246c-0.456,1.655-0.684,3.343-0.684,5.036
	c0,10.465,8.513,18.954,18.978,18.954s18.978-8.562,18.978-19.028c0-1.696-0.23-3.49-0.681-5.137
	c-1.41-5.135-0.343-10.829,2.884-15.063c3.227-4.234,8.247-7.108,13.571-7.108h34.715v-87.04H0v87.04h32.312
	C37.635,104.106,42.653,106.973,45.882,111.206z"/>
<path style="fill:#99CEF1;" d="M67.391,319.62c26.738,0,48.927,20.006,52.584,45.606h16.558V310.31
	c-23.893-7.289-40.549-29.204-40.549-55.035c0-25.83,16.655-47.744,40.549-55.035v-58.516c0-0.882,0.053-1.778,0.043-3.485h-16.927
	c-3.659,27.307-25.846,45.606-52.584,45.606s-48.925-18.299-52.584-45.606H0v226.987h14.81
	C18.466,339.626,40.653,319.62,67.391,319.62z"/>
<path style="fill:#D06194;" d="M130.118,255.277c0,4.087,1.154,7.933,3.104,11.283c3.647,6.663,10.424,11.358,18.36,12.088
	c0.671,0.065,1.343,0.109,2.017,0.109v-0.007c0.049,0,0.099,0.007,0.148,0.007c9.424,0,16.918,7.642,16.918,17.067v60.868h48.894
	c5.325,0,10.346,2.415,13.573,6.651c3.227,4.236,4.296,9.663,2.883,14.799c-0.452,1.647-0.681,3.343-0.681,5.04
	c0,10.465,8.513,18.983,18.976,18.983c10.465,0,18.978-8.504,18.978-18.97c0-1.696-0.23-3.374-0.681-5.021
	c-1.411-5.135-0.345-10.598,2.883-14.833s8.248-6.649,13.573-6.649h52.268v-53.461c0-9.424,7.53-17.067,16.956-17.067
	c0.038,0,0.073-0.005,0.111-0.005v0.005c0,0,0.012-0.005,0.014-0.007c11.849-0.063,21.535-8.95,23.023-20.41
	c0.278-1.004,0.444-2.026,0.444-3.065c0-4.087-1.154-7.933-3.104-11.283c-3.647-6.665-10.424-11.358-18.36-12.088
	c-0.671-0.065-1.343-0.109-2.017-0.109v0.007c-0.049,0-0.099-0.007-0.148-0.007c-9.424,0-16.918-7.641-16.918-17.067v-66.83h-51.941
	c-5.325,0-10.346-2.193-13.571-6.429c-3.229-4.234-4.296-9.441-2.884-14.577c0.452-1.647,0.681-3.352,0.681-5.05
	c0-10.464-8.513-18.995-18.976-18.995c-10.465,0-18.978,8.477-18.978,18.941c0,1.696,0.23,3.318,0.681,4.966
	c1.41,5.135,0.343,10.486-2.884,14.72c-3.227,4.234-8.247,6.424-13.571,6.424h-49.22v59.423c0,9.426-7.53,17.067-16.956,17.067
	c-0.038,0-0.073,0.005-0.111,0.005v-0.005c0,0-0.012,0.005-0.014,0.007c-11.849,0.063-21.535,8.95-23.023,20.41
	C130.284,253.216,130.118,254.238,130.118,255.277z"/>
<path style="fill:#ED6BA8;" d="M130.118,255.277c0,4.087,1.154,7.933,3.104,11.283c3.647,6.663,10.424,11.358,18.36,12.088
	c0.671,0.065,1.343,0.109,2.017,0.109v-0.007c0.049,0,0.099,0.007,0.148,0.007c9.424,0,16.918,7.642,16.918,17.067v60.868h48.894
	c5.325,0,10.346,2.415,13.573,6.651c3.227,4.236,4.296,9.663,2.883,14.799c-0.452,1.647-0.681,3.343-0.681,5.04
	c0,10.465,8.513,18.983,18.976,18.983l0.328-291.908c-10.465,0-18.978,8.477-18.978,18.941c0,1.696,0.23,3.318,0.681,4.966
	c1.41,5.135,0.343,10.486-2.884,14.72c-3.227,4.234-8.247,6.424-13.571,6.424h-49.22v59.423c0,9.426-7.53,17.067-16.956,17.067
	c-0.038,0-0.073,0.005-0.111,0.005v-0.005c0,0-0.012,0.005-0.014,0.007c-11.849,0.063-21.535,8.95-23.023,20.41
	C130.284,253.216,130.118,254.238,130.118,255.277z"/>
<g>
</g>
<g>
</g>
<g>
</g>
<g>
</g>
<g>
</g>
<g>
</g>
<g>
</g>
<g>
</g>
<g>
</g>
<g>
</g>
<g>
</g>
<g>
</g>
<g>
</g>
<g>
</g>
<g>
</g>
</svg>
