<?xml version="1.0" encoding="iso-8859-1"?>
<!-- Generator: Adobe Illustrator 19.0.0, SVG Export Plug-In . SVG Version: 6.00 Build 0)  -->
<svg version="1.1" id="Layer_1" xmlns="http://www.w3.org/2000/svg" xmlns:xlink="http://www.w3.org/1999/xlink" x="0px" y="0px"
	 viewBox="0 0 512 512" style="enable-background:new 0 0 512 512;" xml:space="preserve">
<path style="fill:#3F9797;" d="M398.238,512H113.764c-11.681,0-21.15-9.47-21.15-21.15c0-11.681,9.47-21.151,21.15-21.151h284.474
	c11.681,0,21.151,9.47,21.151,21.151C419.388,502.53,409.919,512,398.238,512z"/>
<path style="fill:#46A8A8;" d="M256.001,512H113.764c-11.681,0-21.15-9.47-21.15-21.15c0-11.681,9.47-21.151,21.15-21.151h142.237
	V512z"/>
<path style="fill:#3F9797;" d="M355.762,326.101l-79.43-310.207C273.932,6.541,265.579,0,255.923,0
	c-9.656,0-18.047,6.541-20.448,15.894l-79.254,310.207c-0.441,1.717-0.333,3.483-0.333,5.257v74.89c0,11.681,9.47,21.15,21.15,21.15
	s21.15-9.47,21.15-21.15v-72.696h57.809h57.814v72.696c0,11.681,9.47,21.15,21.15,21.15c11.681,0,21.151-9.47,21.151-21.15v-74.89
	C356.113,329.585,356.202,327.819,355.762,326.101z"/>
<path style="fill:#46A8A8;" d="M255.923,0c-9.657,0-18.047,6.541-20.448,15.894l-79.254,310.207
	c-0.441,1.717-0.333,3.483-0.333,5.257v74.89c0,11.681,9.47,21.15,21.15,21.15s21.15-9.47,21.15-21.15v-72.696h57.809L255.923,0z"/>
<path style="fill:#94BD81;" d="M338.857,308.624H173.144c-35.86,0-65.034-29.174-65.034-65.035s29.174-65.035,65.034-65.035h165.711
	c35.86,0,65.034,29.174,65.034,65.035S374.717,308.624,338.857,308.624z"/>
<path style="fill:#98E790;" d="M255.992,308.624h-82.848c-35.86,0-65.034-29.174-65.034-65.035s29.174-65.035,65.034-65.035h82.818
	L255.992,308.624z"/>
<path style="fill:#E2DB78;" d="M388.208,396.393H123.793c-35.86,0-65.034-29.174-65.034-65.035s29.174-65.035,65.034-65.035h264.414
	c35.86,0,65.034,29.174,65.034,65.035S424.068,396.393,388.208,396.393z"/>
<path style="fill:#F5ED7F;" d="M255.992,396.393H123.793c-35.86,0-65.034-29.174-65.034-65.035s29.174-65.035,65.034-65.035h132.189
	L255.992,396.393z"/>
<path style="fill:#D06194;" d="M423.459,478.856H88.542c-35.86,0-65.034-29.174-65.034-65.035s29.174-65.035,65.034-65.035h334.915
	c35.86,0,65.034,29.174,65.034,65.035S459.319,478.856,423.459,478.856z"/>
<path style="fill:#ED6BA8;" d="M255.992,478.856H88.542c-35.86,0-65.034-29.174-65.034-65.035s29.174-65.035,65.034-65.035h167.446
	L255.992,478.856z"/>
<g>
</g>
<g>
</g>
<g>
</g>
<g>
</g>
<g>
</g>
<g>
</g>
<g>
</g>
<g>
</g>
<g>
</g>
<g>
</g>
<g>
</g>
<g>
</g>
<g>
</g>
<g>
</g>
<g>
</g>
</svg>
