<?xml version="1.0" encoding="iso-8859-1"?>
<!-- Generator: Adobe Illustrator 19.0.0, SVG Export Plug-In . SVG Version: 6.00 Build 0)  -->
<svg version="1.1" id="Layer_1" xmlns="http://www.w3.org/2000/svg" xmlns:xlink="http://www.w3.org/1999/xlink" x="0px" y="0px"
	 viewBox="0 0 512 512" style="enable-background:new 0 0 512 512;" xml:space="preserve">
<path style="fill:#3F9797;" d="M488.039,319.054c-10.447,0-18.916-8.469-18.916-18.916v-68.099c0-10.447,8.469-18.916,18.916-18.916
	s18.916,8.469,18.916,18.916v68.099C506.956,310.585,498.486,319.054,488.039,319.054z"/>
<g>
	<path style="fill:#46A8A8;" d="M22.7,319.054c-10.447,0-18.916-8.469-18.916-18.916v-68.099c0-10.447,8.469-18.916,18.916-18.916
		s18.916,8.469,18.916,18.916v68.099C41.616,310.585,33.146,319.054,22.7,319.054z"/>
	<path style="fill:#46A8A8;" d="M161.419,404.808c-10.447,0-18.916-8.469-18.916-18.916v-50.443
		c0-10.447,8.469-18.916,18.916-18.916s18.916,8.469,18.916,18.916v50.443C180.335,396.338,171.866,404.808,161.419,404.808z"/>
</g>
<path style="fill:#3F9797;" d="M349.32,404.808c-10.447,0-18.916-8.469-18.916-18.916v-50.443c0-10.447,8.469-18.916,18.916-18.916
	s18.916,8.469,18.916,18.916v50.443C368.236,396.338,359.767,404.808,349.32,404.808z"/>
<g>
	<path style="fill:#99CEF1;" d="M373.281,356.4H134.874c-4.706,0-9.244-1.754-12.726-4.921L6.191,246.035
		C2.247,242.45,0,237.369,0,232.039c0-5.329,2.247-10.41,6.191-13.995l115.958-105.443c3.482-3.167,8.019-4.921,12.726-4.921
		h238.407c4.6,0,9.044,1.677,12.497,4.716l119.803,105.444c4.081,3.592,6.419,8.765,6.419,14.2c0,5.435-2.338,10.608-6.419,14.2
		L385.778,351.685C382.325,354.723,377.881,356.4,373.281,356.4z"/>
	<polygon style="fill:#99CEF1;" points="254.078,232.039 254.078,232.039 254.077,232.039 	"/>
</g>
<path style="fill:#E2DB78;" d="M256,232.039v124.847h117.281c4.6,0,9.044-1.921,12.497-4.96l119.803-105.565
	c4.081-3.592,6.419-8.886,6.419-14.321H256V232.039z"/>
<path style="fill:#98E790;" d="M0,232.039c0,5.329,2.247,10.41,6.191,13.995l115.958,105.688c3.482,3.167,8.019,5.164,12.726,5.164
	H256V232.039H0z"/>
<path style="fill:#8AB8D6;" d="M512,232.039c0-5.435-2.338-10.608-6.419-14.2L385.778,112.152c-3.453-3.039-7.897-4.96-12.497-4.96
	H256v124.847H512z"/>
<path style="fill:#ED6BA8;" d="M256,107.192H134.874c-4.706,0-9.244,1.998-12.726,5.164L6.191,217.922
	C2.247,221.508,0,226.71,0,232.039h256V107.192z"/>
<g>
</g>
<g>
</g>
<g>
</g>
<g>
</g>
<g>
</g>
<g>
</g>
<g>
</g>
<g>
</g>
<g>
</g>
<g>
</g>
<g>
</g>
<g>
</g>
<g>
</g>
<g>
</g>
<g>
</g>
</svg>
