<?xml version="1.0" encoding="iso-8859-1"?>
<!-- Generator: Adobe Illustrator 19.0.0, SVG Export Plug-In . SVG Version: 6.00 Build 0)  -->
<svg version="1.1" id="Layer_1" xmlns="http://www.w3.org/2000/svg" xmlns:xlink="http://www.w3.org/1999/xlink" x="0px" y="0px"
	 viewBox="0 0 512 512" style="enable-background:new 0 0 512 512;" xml:space="preserve">
<g>
	<path style="fill:#3F9797;" d="M464.053,375.172c4.329,4.09,9.813,6.118,15.334,6.118c5.945,0,11.857-2.354,16.264-7.016
		c8.496-8.991,8.176-23.171-0.817-31.666l-65.606-62.065v-37.11l34.825,32.994c4.329,4.09,9.813,6.118,15.334,6.118
		c5.945,0,11.856-2.354,16.264-7.016c8.496-8.991,8.176-23.169-0.817-31.666l-65.606-62.065v-12.047c0-12.371-10.029-22.4-22.4-22.4
		s-22.4,10.029-22.4,22.4v275.557c0,12.371,10.029,22.4,22.4,22.4s22.4-10.029,22.4-22.4v-4.383l34.825,32.994
		c4.329,4.09,9.813,6.118,15.334,6.118c5.945,0,11.857-2.353,16.264-7.016c8.496-8.991,8.176-23.171-0.817-31.666l-65.606-62.065
		v-37.11L464.053,375.172z"/>
	<path style="fill:#3F9797;" d="M406.828,100.314c12.371,0,22.4-10.029,22.4-22.4V24.183c0-12.371-10.029-22.4-22.4-22.4
		s-22.4,10.029-22.4,22.4v53.731C384.428,90.285,394.457,100.314,406.828,100.314z"/>
</g>
<path style="fill:#D06194;" d="M79.377,470.521H22.4c-12.371,0-22.4-10.029-22.4-22.4v-68.694c0-12.371,10.029-22.4,22.4-22.4
	h49.967c45.029,0,87.002-24.218,109.54-63.201L256,165.666l48.664-84.174c4.004-6.925,11.396-11.188,19.393-11.188h155.287
	c12.371,0,22.4,10.029,22.4,22.4v68.694c0,12.371-10.029,22.4-22.4,22.4h-105.03l-101.11,174.893
	c-5.176,8.953-10.931,17.465-17.202,25.5C213.956,438.072,148.715,470.521,79.377,470.521z"/>
<path style="fill:#ED6BA8;" d="M79.377,470.521H22.4c-12.371,0-22.4-10.029-22.4-22.4v-68.694c0-12.371,10.029-22.4,22.4-22.4
	h49.967c45.029,0,87.002-24.218,109.54-63.201L256,165.666l0.002,218.526C213.956,438.072,148.715,470.521,79.377,470.521z"/>
<path style="fill:#3F9797;" d="M489.6,510.217c-12.371,0-22.4-10.029-22.4-22.4V48.795c0-12.371,10.029-22.4,22.4-22.4
	c12.371,0,22.4,10.029,22.4,22.4v439.022C512,500.188,501.971,510.217,489.6,510.217z"/>
<g>
</g>
<g>
</g>
<g>
</g>
<g>
</g>
<g>
</g>
<g>
</g>
<g>
</g>
<g>
</g>
<g>
</g>
<g>
</g>
<g>
</g>
<g>
</g>
<g>
</g>
<g>
</g>
<g>
</g>
</svg>
